<svg width="24" height="24" viewBox="0 0 24 24" fill="none" xmlns="http://www.w3.org/2000/svg">
<path d="M5.35006 5.63999C4.45006 4.99999 4.23006 3.75999 4.86006 2.84999C5.49006 1.94999 6.74006 1.72999 7.65006 2.35999C8.55006 2.99999 8.77006 4.23999 8.14006 5.14999C7.50006 6.04999 6.26006 6.26999 5.35006 5.63999ZM16.0001 20C16.0001 19.45 15.5501 19 15.0001 19H8.93006C7.45006 19 6.19006 17.92 5.97006 16.46L4.16006 7.77999C4.07006 7.32999 3.67006 6.99999 3.20006 6.99999C2.58006 6.99999 2.12006 7.56999 2.24006 8.17999L3.99006 16.76C4.37006 19.2 6.47006 21 8.94006 21H15.0001C15.5501 21 16.0001 20.55 16.0001 20ZM15.5401 15H11.3501L10.3201 10.9C11.6001 11.62 12.9501 12.18 14.4201 12.2C15.0001 12.21 15.4701 11.71 15.4701 11.13C15.4701 10.54 14.9801 10.09 14.3901 10.07C13.0801 10.03 11.7601 9.50999 10.7801 8.73999L9.14006 7.46999C8.91006 7.28999 8.65006 7.16999 8.38006 7.08999C8.06006 6.99999 7.72006 6.96999 7.39006 7.02999H7.37006C6.14006 7.24999 5.32006 8.41999 5.53006 9.63999L6.88006 15.56C7.16006 16.98 8.39006 18 9.83006 18H16.6801L19.7701 20.42C20.1901 20.75 20.7901 20.71 21.1601 20.34C21.6101 19.89 21.5601 19.16 21.0601 18.77L16.7701 15.42C16.4201 15.15 15.9901 15 15.5401 15Z" fill="#323232"/>
</svg>
