<svg width="24" height="24" viewBox="0 0 24 24" fill="none" xmlns="http://www.w3.org/2000/svg">
<path d="M23.0901 16.2C16.7601 10.61 7.23008 10.61 0.910075 16.2C0.0700755 16.94 0.0700755 18.25 0.860075 19.04L2.06008 20.24C2.77008 20.95 3.90008 21.01 4.68008 20.39L6.65008 18.82C7.12008 18.45 7.40008 17.88 7.40008 17.27V14.7C10.3801 13.73 13.6101 13.72 16.6001 14.7V17.28C16.6001 17.88 16.8801 18.45 17.3501 18.83L19.3101 20.39C20.1001 21.01 21.2201 20.95 21.9301 20.24L23.1301 19.04C23.9301 18.25 23.9201 16.94 23.0901 16.2ZM6.00008 9C6.55008 9 7.00008 8.55 7.00008 8V6.43L11.2401 10.67C11.6301 11.06 12.2601 11.06 12.6501 10.67L18.3101 5.01C18.7001 4.62 18.7001 3.99 18.3101 3.6C17.9201 3.21 17.2901 3.21 16.9001 3.6L11.9501 8.55L8.40007 5H10.0001C10.5501 5 11.0001 4.55 11.0001 4C11.0001 3.45 10.5501 3 10.0001 3H6.00008C5.45008 3 5.00008 3.45 5.00008 4V8C5.00008 8.55 5.45008 9 6.00008 9Z" fill="#323232"/>
</svg>
