<svg width="24" height="24" viewBox="0 0 24 24" fill="none" xmlns="http://www.w3.org/2000/svg">
<path d="M10.0001 5.74V5.55C10.0001 4.87 9.29009 4.44 8.68009 4.73C8.49009 4.82 8.32009 4.93 8.14009 5.03L9.60009 6.49C9.84009 6.31 10.0001 6.04 10.0001 5.74ZM20.0001 12C20.0001 9.79 19.0901 7.8 17.6401 6.36L19.1501 4.85C19.4601 4.54 19.2401 4 18.7901 4H14.0001V8.79C14.0001 9.24 14.5401 9.46 14.8501 9.14L16.2401 7.75C17.3201 8.85 18.0001 10.34 18.0001 12C18.0001 12.85 17.8201 13.66 17.5001 14.39L18.9801 15.87C19.6201 14.72 20.0001 13.41 20.0001 12ZM3.57009 4.7C3.18009 5.09 3.18009 5.72 3.57009 6.11L5.22009 7.76C4.45009 9 4.00009 10.44 4.00009 12C4.00009 14.21 4.91009 16.2 6.36009 17.64L4.85009 19.15C4.54009 19.46 4.76009 20 5.21009 20H9.50009C9.78009 20 10.0001 19.78 10.0001 19.5V15.21C10.0001 14.76 9.46009 14.54 9.15009 14.86L7.76009 16.25C6.68009 15.15 6.00009 13.66 6.00009 12C6.00009 11 6.26009 10.07 6.69009 9.24L14.7601 17.31C14.7501 17.33 14.7501 17.33 14.7501 17.35C14.3201 17.47 14.0001 17.83 14.0001 18.26V18.44C14.0001 19.12 14.7101 19.55 15.3201 19.26C15.6301 19.12 15.9301 18.95 16.2201 18.77L18.0901 20.64C18.4801 21.03 19.1101 21.03 19.5001 20.64C19.8901 20.25 19.8901 19.62 19.5001 19.23L4.98009 4.7C4.59009 4.31 3.96009 4.31 3.57009 4.7Z" fill="#323232"/>
</svg>
