<svg width="24" height="24" viewBox="0 0 24 24" fill="none" xmlns="http://www.w3.org/2000/svg">
<path d="M6.83012 4.00001H19.0001C20.1001 4.00001 21.0001 4.90001 21.0001 6.00001V18C21.0001 18.05 20.9901 18.1 20.9801 18.16L17.6001 14.78C17.8401 14.59 18.0001 14.32 18.0001 14V13.5C18.0001 13.22 17.7801 13 17.5001 13H17.0001C16.7201 13 16.5001 13.22 16.5001 13.5H16.3301L14.5001 11.67V10.5H16.5001C16.5001 10.78 16.7201 11 17.0001 11H17.5001C17.7801 11 18.0001 10.78 18.0001 10.5V10C18.0001 9.45001 17.5501 9.00001 17.0001 9.00001H14.0001C13.4501 9.00001 13.0001 9.45001 13.0001 10V10.17L6.83012 4.00001ZM20.4901 21.9C20.1001 22.29 19.4701 22.29 19.0801 21.9L17.1801 20H5.00012C3.89012 20 3.00012 19.1 3.00012 18V6.00001C3.00012 5.95001 3.02012 5.90001 3.02012 5.85001L2.10012 4.93001C1.71012 4.54001 1.71012 3.91001 2.10012 3.52001C2.49012 3.13001 3.12012 3.13001 3.51012 3.52001L20.4801 20.49C20.8801 20.88 20.8801 21.51 20.4901 21.9ZM11.0001 13.83L10.1701 13H10.0001C9.72012 13 9.50012 13.22 9.50012 13.5H7.50012V10.5H7.67012L6.40012 9.22001C6.16012 9.41001 6.00012 9.68001 6.00012 10V14C6.00012 14.55 6.45012 15 7.00012 15H10.0001C10.5501 15 11.0001 14.55 11.0001 14V13.83Z" fill="#323232"/>
</svg>
