<svg width="24" height="24" viewBox="0 0 24 24" fill="none" xmlns="http://www.w3.org/2000/svg">
<path d="M18.9201 13C18.4201 13 18.0101 13.37 17.9401 13.86C17.4601 17.23 14.1701 19.7 10.5201 18.82C8.27012 18.28 6.61012 16.55 6.13012 14.29C5.32012 10.42 8.27012 7 12.0001 7V9.79C12.0001 10.24 12.5401 10.46 12.8501 10.14L16.6401 6.35C16.8401 6.15 16.8401 5.84 16.6401 5.64L12.8501 1.85C12.5401 1.54 12.0001 1.76 12.0001 2.21V5C7.06012 5 3.16012 9.48 4.16012 14.6C4.76012 17.71 7.06012 20.1 10.1501 20.79C14.9801 21.87 19.3001 18.59 19.9201 14.12C20.0101 13.53 19.5201 13 18.9201 13ZM10.9001 16V11.73H10.8101L9.04012 12.36V13.05L10.0501 12.74V16H10.9001ZM14.3201 11.78C14.1401 11.71 13.9501 11.68 13.7301 11.68C13.5101 11.68 13.3201 11.71 13.1401 11.78C12.9601 11.85 12.8101 11.96 12.6901 12.11C12.5701 12.26 12.4601 12.45 12.4001 12.68C12.3401 12.91 12.3001 13.18 12.3001 13.5V14.24C12.3001 14.56 12.3401 14.84 12.4101 15.06C12.4801 15.28 12.5801 15.48 12.7101 15.63C12.8401 15.78 12.9901 15.89 13.1701 15.96C13.3501 16.03 13.5401 16.06 13.7601 16.06C13.9801 16.06 14.1701 16.03 14.3501 15.96C14.5301 15.89 14.6801 15.78 14.8001 15.63C14.9201 15.48 15.0201 15.29 15.0901 15.06C15.1601 14.83 15.1901 14.56 15.1901 14.24V13.5C15.1901 13.18 15.1501 12.9 15.0801 12.68C15.0101 12.46 14.9101 12.26 14.7801 12.11C14.6501 11.96 14.4901 11.85 14.3201 11.78ZM14.3301 14.35C14.3301 14.54 14.3201 14.7 14.2901 14.83C14.2601 14.96 14.2301 15.07 14.1801 15.15C14.1301 15.23 14.0701 15.29 13.9901 15.32C13.9101 15.35 13.8301 15.37 13.7401 15.37C13.6501 15.37 13.5601 15.35 13.4901 15.32C13.4201 15.29 13.3501 15.23 13.3001 15.15C13.2501 15.07 13.2101 14.96 13.1801 14.83C13.1501 14.7 13.1401 14.54 13.1401 14.35V13.38C13.1401 13.19 13.1501 13.03 13.1801 12.9C13.2101 12.77 13.2401 12.67 13.3001 12.59C13.3601 12.51 13.4101 12.45 13.4901 12.42C13.5701 12.39 13.6501 12.37 13.7401 12.37C13.8301 12.37 13.9201 12.39 13.9901 12.42C14.0601 12.45 14.1301 12.51 14.1801 12.59C14.2301 12.67 14.2701 12.77 14.3001 12.9C14.3301 13.03 14.3401 13.19 14.3401 13.38V14.35H14.3301Z" fill="#323232"/>
</svg>
