<svg width="24" height="24" viewBox="0 0 24 24" fill="none" xmlns="http://www.w3.org/2000/svg">
<path d="M18.9201 13C18.4201 13 18.0101 13.37 17.9401 13.86C17.4601 17.23 14.1701 19.7 10.5201 18.82C8.27012 18.28 6.61012 16.55 6.13012 14.29C5.32012 10.42 8.27012 7 12.0001 7V9.79C12.0001 10.24 12.5401 10.46 12.8501 10.14L16.6401 6.35C16.8401 6.15 16.8401 5.84 16.6401 5.64L12.8501 1.85C12.5401 1.54 12.0001 1.76 12.0001 2.21V5C7.06012 5 3.16012 9.48 4.16012 14.6C4.76012 17.71 7.06012 20.1 10.1501 20.79C14.9801 21.87 19.3001 18.59 19.9201 14.12C20.0101 13.53 19.5201 13 18.9201 13ZM10.5401 15.22C10.4801 15.27 10.4201 15.31 10.3401 15.34C10.2601 15.37 10.1701 15.38 10.0701 15.38C9.98012 15.38 9.90012 15.37 9.82012 15.34C9.74012 15.31 9.68012 15.28 9.62012 15.23C9.56012 15.18 9.52012 15.13 9.49012 15.06C9.46012 14.99 9.44012 14.92 9.44012 14.84H8.59012C8.59012 15.05 8.63012 15.23 8.71012 15.39C8.79012 15.55 8.90012 15.67 9.04012 15.77C9.18012 15.87 9.33012 15.95 9.50012 16C9.67012 16.05 9.85012 16.07 10.0301 16.07C10.2401 16.07 10.4401 16.04 10.6301 15.99C10.8201 15.94 10.9701 15.85 11.1101 15.75C11.2501 15.65 11.3501 15.51 11.4301 15.36C11.5101 15.21 11.5501 15.03 11.5501 14.83C11.5501 14.6 11.4901 14.39 11.3701 14.22C11.2501 14.05 11.0701 13.92 10.8301 13.83C10.9301 13.78 11.0301 13.73 11.1101 13.66C11.1901 13.59 11.2601 13.52 11.3101 13.44C11.3601 13.36 11.4101 13.28 11.4401 13.19C11.4701 13.1 11.4801 13.01 11.4801 12.92C11.4801 12.72 11.4401 12.55 11.3701 12.39C11.3001 12.23 11.2001 12.11 11.0701 12.01C10.9401 11.91 10.7901 11.83 10.6101 11.78C10.4301 11.73 10.2401 11.7 10.0201 11.7C9.83012 11.7 9.64012 11.73 9.48012 11.78C9.32012 11.83 9.16012 11.91 9.04012 12.01C8.92012 12.11 8.81012 12.23 8.74012 12.38C8.67012 12.53 8.63012 12.68 8.63012 12.86H9.48012C9.48012 12.79 9.50012 12.72 9.53012 12.66C9.56012 12.6 9.60012 12.55 9.65012 12.51C9.70012 12.47 9.76012 12.44 9.83012 12.41C9.90012 12.38 9.97012 12.38 10.0501 12.38C10.1501 12.38 10.2301 12.39 10.3001 12.42C10.3701 12.45 10.4301 12.48 10.4801 12.53C10.5301 12.58 10.5601 12.64 10.5901 12.7C10.6201 12.76 10.6301 12.84 10.6301 12.92C10.6301 13.1 10.5801 13.24 10.4701 13.35C10.3601 13.46 10.2101 13.51 9.99012 13.51H9.56012V14.17H10.0101C10.1201 14.17 10.2101 14.18 10.3001 14.21C10.3901 14.24 10.4601 14.27 10.5201 14.32C10.5801 14.37 10.6301 14.44 10.6601 14.52C10.6901 14.6 10.7101 14.7 10.7101 14.81C10.7101 14.9 10.7001 14.98 10.6701 15.05C10.6401 15.12 10.5901 15.16 10.5401 15.22ZM14.4401 11.78C14.2601 11.71 14.0701 11.68 13.8501 11.68C13.6301 11.68 13.4401 11.71 13.2601 11.78C13.0801 11.85 12.9301 11.96 12.8101 12.11C12.6901 12.26 12.5801 12.45 12.5201 12.68C12.4601 12.91 12.4201 13.18 12.4201 13.5V14.24C12.4201 14.56 12.4601 14.84 12.5301 15.06C12.6001 15.28 12.7001 15.48 12.8301 15.63C12.9601 15.78 13.1101 15.89 13.2901 15.96C13.4701 16.03 13.6601 16.06 13.8801 16.06C14.1001 16.06 14.2901 16.03 14.4701 15.96C14.6501 15.89 14.8001 15.78 14.9201 15.63C15.0401 15.48 15.1401 15.29 15.2101 15.06C15.2801 14.83 15.3101 14.56 15.3101 14.24V13.5C15.3101 13.18 15.2701 12.9 15.2001 12.68C15.1301 12.46 15.0301 12.26 14.9001 12.11C14.7701 11.96 14.6201 11.85 14.4401 11.78ZM14.4501 14.35C14.4501 14.54 14.4401 14.7 14.4101 14.83C14.3801 14.96 14.3501 15.07 14.3001 15.15C14.2501 15.23 14.1901 15.29 14.1101 15.32C14.0301 15.35 13.9501 15.37 13.8601 15.37C13.7701 15.37 13.6801 15.35 13.6101 15.32C13.5401 15.29 13.4701 15.23 13.4201 15.15C13.3701 15.07 13.3301 14.96 13.3001 14.83C13.2701 14.7 13.2601 14.54 13.2601 14.35V13.38C13.2601 13.19 13.2701 13.03 13.3001 12.9C13.3301 12.77 13.3601 12.67 13.4201 12.59C13.4801 12.51 13.5301 12.45 13.6101 12.42C13.6901 12.39 13.7701 12.37 13.8601 12.37C13.9501 12.37 14.0401 12.39 14.1101 12.42C14.1801 12.45 14.2501 12.51 14.3001 12.59C14.3501 12.67 14.3901 12.77 14.4201 12.9C14.4501 13.03 14.4601 13.19 14.4601 13.38V14.35H14.4501Z" fill="#323232"/>
</svg>
