<svg width="24" height="24" viewBox="0 0 24 24" fill="none" xmlns="http://www.w3.org/2000/svg">
<path d="M3.24 6.15C2.51 6.43 2 7.17 2 8V20C2 21.1 2.9 22 4 22H20C21.11 22 22 21.1 22 20V8C22 6.9 21.1 6 20 6H8.3L15.73 3C16.19 2.81 16.41 2.29 16.22 1.83C16.03 1.37 15.51 1.15 15.05 1.34L3.24 6.15ZM7 20C5.34 20 4 18.66 4 17C4 15.34 5.34 14 7 14C8.66 14 10 15.34 10 17C10 18.66 8.66 20 7 20ZM20 12H18V11C18 10.45 17.55 10 17 10C16.45 10 16 10.45 16 11V12H4V9C4 8.45 4.45 8 5 8H19C19.55 8 20 8.45 20 9V12Z" fill="#323232"/>
</svg>
