<svg width="24" height="24" viewBox="0 0 24 24" fill="none" xmlns="http://www.w3.org/2000/svg">
<path d="M6.99996 7H17V8.79C17 9.24 17.54 9.46 17.85 9.14L20.64 6.35C20.84 6.15 20.84 5.84 20.64 5.64L17.85 2.85C17.54 2.54 17 2.76 17 3.21V5H5.99996C5.44996 5 4.99996 5.45 4.99996 6V10C4.99996 10.55 5.44996 11 5.99996 11C6.54996 11 6.99996 10.55 6.99996 10V7ZM17 17H6.99996V15.21C6.99996 14.76 6.45996 14.54 6.14996 14.86L3.35996 17.65C3.15996 17.85 3.15996 18.16 3.35996 18.36L6.14996 21.15C6.45996 21.46 6.99996 21.24 6.99996 20.79V19H18C18.55 19 19 18.55 19 18V14C19 13.45 18.55 13 18 13C17.45 13 17 13.45 17 14V17ZM13 14.25V9.81C13 9.36 12.64 9 12.19 9C12.06 9 11.94 9.03 11.83 9.09L10.34 9.83C10.13 9.93 9.99996 10.15 9.99996 10.38C9.99996 10.72 10.28 11 10.62 11H11.5V14.25C11.5 14.66 11.84 15 12.25 15C12.66 15 13 14.66 13 14.25Z" fill="#323232"/>
</svg>
