<svg width="24" height="24" viewBox="0 0 24 24" fill="none" xmlns="http://www.w3.org/2000/svg">
<path d="M10 11H12.63L8.91001 15.35C8.36001 16 8.82001 17 9.67001 17H14C14.55 17 15 16.55 15 16C15 15.45 14.55 15 14 15H11.37L15.09 10.65C15.64 10 15.18 9 14.33 9H10C9.45001 9 9.00001 9.45 9.00001 10C9.00001 10.55 9.45001 11 10 11ZM21.3 6.42C20.95 6.84 20.32 6.9 19.89 6.55L16.82 3.99C16.4 3.63 16.34 3 16.7 2.58C17.05 2.16 17.68 2.1 18.11 2.45L21.18 5.01C21.6 5.37 21.66 6 21.3 6.42ZM2.70001 6.42C3.05001 6.85 3.68001 6.9 4.10001 6.55L7.17001 3.99C7.60001 3.63 7.66001 3 7.30001 2.58C6.95001 2.15 6.32001 2.1 5.90001 2.45L2.82001 5.01C2.40001 5.37 2.34001 6 2.70001 6.42ZM12 6C15.86 6 19 9.14 19 13C19 16.86 15.86 20 12 20C8.14001 20 5.00001 16.86 5.00001 13C5.00001 9.14 8.14001 6 12 6ZM12 4C7.03001 4 3.00001 8.03 3.00001 13C3.00001 17.97 7.03001 22 12 22C16.97 22 21 17.97 21 13C21 8.03 16.97 4 12 4Z" fill="#323232"/>
</svg>
