<svg width="24" height="24" viewBox="0 0 24 24" fill="none" xmlns="http://www.w3.org/2000/svg">
<path d="M21.6 18.2L13 11.75V10.84C14.65 10.35 15.8 8.67 15.43 6.79C15.17 5.48 14.13 4.39 12.82 4.09C11.06 3.69 9.45002 4.62 8.80002 6.07C8.50002 6.74 8.98002 7.5 9.71002 7.5C10.1 7.5 10.46 7.28 10.61 6.93C10.84 6.38 11.37 6 12 6C12.83 6 13.5 6.67 13.5 7.5C13.5 8.34 12.81 9.02 11.97 9C11.43 8.99 11 9.45 11 9.99V11.75L2.40002 18.2C1.63002 18.78 2.04002 20 3.00002 20H12H21C21.96 20 22.37 18.78 21.6 18.2ZM6.00002 18L12 13.5L18 18H6.00002Z" fill="#323232"/>
</svg>
