<svg width="24" height="24" viewBox="0 0 24 24" fill="none" xmlns="http://www.w3.org/2000/svg">
<path d="M18 10V7.17C18 5.55 16.78 4.09 15.16 4C13.95 3.94 12.89 4.59 12.36 5.57C12.01 6.22 12.53 7 13.27 7H13.28C13.62 7 13.96 6.84 14.12 6.54C14.28 6.22 14.62 6 15 6C15.55 6 16 6.45 16 7V10H8C9.1 10 10 9.1 10 8V5C10 4.45 9.55 4 9 4H5C4.45 4 4 4.45 4 5V8C4 9.1 4.9 10 6 10H3C2.45 10 2 10.45 2 11C2 11.55 2.45 12 3 12H4V19C4 19.55 4.45 20 5 20H19C19.55 20 20 19.55 20 19V12H21C21.55 12 22 11.55 22 11C22 10.45 21.55 10 21 10H18ZM13 18H11V12H13V18Z" fill="#323232"/>
</svg>
