<svg width="24" height="24" viewBox="0 0 24 24" fill="none" xmlns="http://www.w3.org/2000/svg">
<path d="M10.9399 8.12L7.47991 4.66L8.39991 3.65C8.77991 3.24 9.31991 3 9.87991 3H14.1199C14.6799 3 15.2199 3.24 15.5899 3.65L16.8299 5H19.9999C21.0999 5 21.9999 5.9 21.9999 7V19C21.9999 19.05 21.9899 19.1 21.9799 19.16L16.8799 14.06C16.9599 13.71 16.9999 13.36 16.9999 13C16.9999 10.24 14.7599 8 11.9999 8C11.6399 8 11.2899 8.04 10.9399 8.12ZM19.7799 22.61L18.1699 21H3.99991C2.89991 21 1.99991 20.1 1.99991 19V7C1.99991 6.41 2.26991 5.88 2.67991 5.51L1.38991 4.22C0.999912 3.83 0.999912 3.2 1.38991 2.81C1.77991 2.42 2.40991 2.42 2.79991 2.81L21.1799 21.19C21.5699 21.58 21.5699 22.21 21.1799 22.6C20.7999 23 20.1699 23 19.7799 22.61ZM14.4899 17.32L12.9899 15.82C12.6699 15.92 12.3499 16 11.9999 16C10.3399 16 8.99991 14.66 8.99991 13C8.99991 12.65 9.07991 12.33 9.18991 12.02L7.68991 10.52C7.24991 11.24 6.99991 12.09 6.99991 13C6.99991 15.76 9.23991 18 11.9999 18C12.9099 18 13.7599 17.75 14.4899 17.32Z" fill="#323232"/>
</svg>
