<svg width="24" height="24" viewBox="0 0 24 24" fill="none" xmlns="http://www.w3.org/2000/svg">
<path d="M22.0001 12C22.0001 6.52 17.6001 2.07 12.1401 2C8.52008 1.95 5.29008 4.03 3.43008 7.14C0.100078 12.69 2.98008 18.27 8.00008 20.25V20.5C8.00008 21.33 8.67008 22 9.50008 22H14.5001C15.3301 22 16.0001 21.33 16.0001 20.5V20.25C19.5301 18.86 22.0001 15.69 22.0001 12ZM20.0001 12H16.0001V5.08C18.3901 6.47 20.0001 9.05 20.0001 12ZM14.0001 4.26V12H10.0001V4.26C10.6401 4.1 11.3101 4 12.0001 4C12.6901 4 13.3601 4.1 14.0001 4.26ZM4.00008 12C4.00008 9.05 5.61008 6.47 8.00008 5.08V12H4.00008Z" fill="#323232"/>
</svg>
