<svg width="24" height="24" viewBox="0 0 24 24" fill="none" xmlns="http://www.w3.org/2000/svg">
<path d="M15.4901 9.63C15.3301 7.21 14.4601 4.84 12.8501 2.87C12.4401 2.37 11.6901 2.37 11.2801 2.87C9.63006 4.85 8.71006 7.22 8.51006 9.63C9.79006 10.31 10.9701 11.19 12.0001 12.26C13.0301 11.2 14.2101 10.32 15.4901 9.63ZM8.99006 12.28C8.85006 12.18 8.69006 12.09 8.54006 11.99C8.69006 12.1 8.85006 12.18 8.99006 12.28ZM15.4101 12.03C15.2801 12.12 15.1401 12.19 15.0101 12.29C15.1401 12.19 15.2801 12.12 15.4101 12.03ZM12.0001 15.45C10.0501 12.48 6.86006 10.42 3.17006 10.06C2.53006 10 2.00006 10.53 2.06006 11.17C2.51006 15.97 5.71006 19.95 10.0401 21.5C10.6701 21.73 11.3301 21.9 12.0101 22.01C12.6901 21.89 13.3401 21.72 13.9801 21.5C18.3101 19.95 21.5101 15.98 21.9601 11.17C22.0201 10.53 21.4801 10 20.8501 10.06C17.1401 10.42 13.9501 12.48 12.0001 15.45Z" fill="#323232"/>
</svg>
