<svg width="24" height="24" viewBox="0 0 24 24" fill="none" xmlns="http://www.w3.org/2000/svg">
<path d="M19 9H17.44C17.77 8.45 17.97 7.82 17.99 7.14C18.03 6.11 17.56 5.15 16.83 4.43C15.29 2.89 14.09 2.87 13.01 3.14C12.2 2.45 11.16 2.02 10 2.02C8.11 2.02 6.49 3.13 5.73 4.73C4.15 5.26 3 6.74 3 8.5C3 10.36 4.28 11.91 6 12.36V19C6 20.1 6.9 21 8 21H15C16.1 21 17 20.1 17 19H19C20.1 19 21 18.1 21 17V11C21 9.9 20.1 9 19 9ZM7 10.5C5.9 10.5 5 9.6 5 8.5C5 7.65 5.55 6.9 6.37 6.62L7.17 6.35L7.53 5.59C8 4.62 8.94 4.02 10 4.02C10.79 4.02 11.39 4.37 11.74 4.67L12.52 5.32C12.52 5.32 13.16 5 13.99 5C15.09 5 15.99 5.9 15.99 7H12.99C9.67 7 9.15 10.5 7 10.5ZM19 17H17V11H19V17Z" fill="#323232"/>
</svg>
