<svg width="24" height="24" viewBox="0 0 24 24" fill="none" xmlns="http://www.w3.org/2000/svg">
<path d="M1.94 11.79C1.34 12.35 1 13.14 1 13.97V20C1 21.66 2.34 23 4 23H17.68C18.33 23 18.93 22.53 19 21.88C19.08 21.13 18.49 20.5 17.76 20.5H12.5C12.22 20.5 12 20.28 12 20C12 19.72 12.22 19.5 12.5 19.5H19.68C20.33 19.5 20.93 19.03 21 18.38C21.08 17.63 20.49 17 19.76 17H12.5C12.22 17 12 16.78 12 16.5C12 16.22 12.22 16 12.5 16H20.68C21.33 16 21.93 15.53 22 14.88C22.08 14.13 21.49 13.5 20.76 13.5H12.5C12.22 13.5 12 13.28 12 13C12 12.72 12.22 12.5 12.5 12.5H18.68C19.33 12.5 19.93 12.03 20 11.38C20.08 10.63 19.49 9.99999 18.76 9.99999H8.86L10.35 7.38999C10.44 7.22999 10.49 7.05999 10.49 6.85999C10.49 6.59999 10.4 6.35999 10.23 6.15999L9.81 5.70999C9.43 5.31999 8.8 5.29999 8.4 5.67999L1.94 11.79ZM18.5 7.99999C19.88 7.99999 21 6.87999 21 5.49999C21 4.24999 19.59 2.33999 18.89 1.45999C18.69 1.20999 18.32 1.20999 18.12 1.45999C17.41 2.33999 16 4.24999 16 5.49999C16 6.87999 17.12 7.99999 18.5 7.99999ZM13.5 8.99999C14.33 8.99999 15 8.32999 15 7.49999C15 6.93999 14.33 6.00999 13.89 5.45999C13.69 5.20999 13.31 5.20999 13.12 5.45999C12.67 6.00999 12 6.93999 12 7.49999C12 8.32999 12.67 8.99999 13.5 8.99999Z" fill="#323232"/>
</svg>
