<svg width="24" height="24" viewBox="0 0 24 24" fill="none" xmlns="http://www.w3.org/2000/svg">
<path d="M12 15C13.66 15 14.99 13.66 14.99 12L15 6C15 4.34 13.66 3 12 3C10.34 3 9.00001 4.34 9.00001 6V12C9.00001 13.66 10.34 15 12 15ZM18.08 12C17.66 12 17.31 12.3 17.25 12.71C16.88 15.32 14.53 17.1 12 17.1C9.47001 17.1 7.12001 15.33 6.75001 12.71C6.69001 12.3 6.33001 12 5.92001 12C5.40001 12 5.00001 12.46 5.07001 12.97C5.53001 15.94 8.03001 18.27 11 18.72V21C11 21.55 11.45 22 12 22C12.55 22 13 21.55 13 21V18.72C15.96 18.29 18.47 15.94 18.93 12.97C19 12.46 18.6 12 18.08 12Z" fill="#323232"/>
</svg>
