<svg width="24" height="24" viewBox="0 0 24 24" fill="none" xmlns="http://www.w3.org/2000/svg">
<path d="M24 19V9C24 8.45 23.55 8 23 8H17C16.45 8 16 8.45 16 9V12.61L18 14.61V10H22V17H20.39L23.32 19.93C23.71 19.8 24 19.44 24 19ZM21 6C21.55 6 22 5.55 22 5C22 4.45 21.55 4 21 4H7.39L9.39 6H21ZM1.36 2.21C0.97 2.6 0.97 3.23 1.36 3.62L2.47 4.73C2.18 5.08 2 5.52 2 6V17H1.5C0.67 17 0 17.67 0 18.5C0 19.33 0.67 20 1.5 20H17.73L19.37 21.64C19.76 22.03 20.39 22.03 20.78 21.64C21.17 21.25 21.17 20.62 20.78 20.23L2.77 2.21C2.38 1.82 1.75 1.82 1.36 2.21ZM4 17V6.27L14.73 17H4Z" fill="#323232"/>
</svg>
