<svg width="24" height="24" viewBox="0 0 24 24" fill="none" xmlns="http://www.w3.org/2000/svg">
<path d="M20.9899 17.99L16.0499 13.05L13.9299 15.17L18.8699 20.11C19.4599 20.7 20.4099 20.7 20.9899 20.11C21.5699 19.52 21.5699 18.57 20.9899 17.99Z" fill="#323232"/>
<path d="M17.65 9.99999C19.58 9.99999 21.15 8.42999 21.15 6.49999C21.15 5.91999 20.99 5.37999 20.74 4.89999L18.04 7.59999L16.55 6.10999L19.25 3.40999C18.77 3.15999 18.23 2.99999 17.65 2.99999C15.72 2.99999 14.15 4.56999 14.15 6.49999C14.15 6.90999 14.23 7.29999 14.36 7.65999L12.51 9.50999L10.73 7.72999C11.12 7.33999 11.12 6.70999 10.73 6.31999L10.02 5.60999L12.14 3.48999C10.97 2.31999 9.07004 2.31999 7.90004 3.48999L5.08004 6.31999C4.69004 6.70999 4.69004 7.33999 5.08004 7.72999L5.79004 8.43999H3.25004C3.06004 8.43999 2.88004 8.50999 2.75004 8.64999C2.47004 8.92999 2.47004 9.36999 2.75004 9.64999L5.29004 12.19C5.57004 12.47 6.01004 12.47 6.29004 12.19C6.42004 12.06 6.50004 11.88 6.50004 11.69V9.14999L7.20004 9.84999C7.59004 10.24 8.22004 10.24 8.61004 9.84999L10.39 11.63L4.04004 17.98C3.45004 18.57 3.45004 19.52 4.04004 20.1C4.63004 20.69 5.58004 20.69 6.16004 20.1L16.48 9.78999C16.85 9.91999 17.24 9.99999 17.65 9.99999Z" fill="#323232"/>
</svg>
