<svg width="24" height="24" viewBox="0 0 24 24" fill="none" xmlns="http://www.w3.org/2000/svg">
<path d="M20.41 9C20.9 9 21.1 8.37 20.7 8.09L13.15 2.8C12.46 2.32 11.54 2.32 10.86 2.8L3.29996 8.09C2.89996 8.37 3.09996 9 3.58996 9H11V21C11 21.55 11.45 22 12 22C12.55 22 13 21.55 13 21V9H20.41Z" fill="#323232"/>
<path d="M7.99994 16H4.89995L4.32994 12.98C4.22994 12.44 3.70994 12.08 3.15994 12.18C2.61994 12.28 2.25994 12.8 2.35994 13.35L2.99994 16.74V21C2.99994 21.55 3.44994 22 3.99994 22H4.00995C4.55995 22 5.00995 21.56 5.00995 21.01L5.01994 18H6.99994V21C6.99994 21.55 7.44994 22 7.99994 22C8.54994 22 8.99994 21.55 8.99994 21V17C8.99994 16.45 8.54994 16 7.99994 16Z" fill="#323232"/>
<path d="M20.84 12.18C20.3 12.08 19.78 12.44 19.67 12.98L19.1 16H16C15.45 16 15 16.45 15 17V21C15 21.55 15.45 22 16 22C16.55 22 17 21.55 17 21V18H18.98L19 21.01C19 21.56 19.45 22 20 22C20.55 22 21 21.55 21 21V16.74L21.64 13.35C21.74 12.81 21.38 12.28 20.84 12.18Z" fill="#323232"/>
</svg>
