<svg width="24" height="24" viewBox="0 0 24 24" fill="none" xmlns="http://www.w3.org/2000/svg">
<path d="M10 5H4C3.45 5 3 5.45 3 6C3 6.55 3.45 7 4 7H6V10C6 10.55 6.45 11 7 11C7.55 11 8 10.55 8 10V7H10C10.55 7 11 6.55 11 6C11 5.45 10.55 5 10 5Z" fill="#323232"/>
<path d="M10 2H4C3.45 2 3 2.45 3 3C3 3.55 3.45 4 4 4H10C10.55 4 11 3.55 11 3C11 2.45 10.55 2 10 2Z" fill="#323232"/>
<path d="M20.8901 13.11C20.5001 12.72 19.8701 12.72 19.4801 13.11L13.1201 19.47C12.7301 19.86 12.7301 20.49 13.1201 20.88C13.5101 21.27 14.1401 21.27 14.5301 20.88L20.8901 14.52C21.2801 14.13 21.2801 13.5 20.8901 13.11Z" fill="#323232"/>
<path d="M14.5 16C15.3284 16 16 15.3284 16 14.5C16 13.6716 15.3284 13 14.5 13C13.6716 13 13 13.6716 13 14.5C13 15.3284 13.6716 16 14.5 16Z" fill="#323232"/>
<path d="M19.5 21C20.3284 21 21 20.3284 21 19.5C21 18.6716 20.3284 18 19.5 18C18.6716 18 18 18.6716 18 19.5C18 20.3284 18.6716 21 19.5 21Z" fill="#323232"/>
<path d="M15.5 11C16.88 11 18 9.88 18 8.5V4H20C20.55 4 21 3.55 21 3C21 2.45 20.55 2 20 2H18C17.45 2 17 2.45 17 3V6.51C16.58 6.19 16.07 6 15.5 6C14.12 6 13 7.12 13 8.5C13 9.88 14.12 11 15.5 11Z" fill="#323232"/>
<path d="M10.4501 18.09C10.8401 17.7 10.8401 17.07 10.4501 16.68C10.0601 16.29 9.43011 16.29 9.04011 16.68L8.33011 17.39L7.62011 16.68L7.97011 16.33C8.95011 15.35 8.95011 13.77 7.97011 12.79C7.48011 12.3 6.84011 12.06 6.20011 12.06C5.56011 12.06 4.92011 12.3 4.43011 12.79C3.45011 13.77 3.45011 15.35 4.43011 16.33L4.78011 16.68L3.72011 17.74C2.74011 18.72 2.74011 20.3 3.72011 21.28C4.22011 21.76 4.86011 22 5.50011 22C6.14011 22 6.78011 21.76 7.27011 21.27L8.33011 20.21L9.04011 20.92C9.43011 21.31 10.0601 21.31 10.4501 20.92C10.8401 20.53 10.8401 19.9 10.4501 19.51L9.74011 18.8L10.4501 18.09ZM5.85011 14.2C5.97011 14.08 6.11011 14.05 6.20011 14.05C6.29011 14.05 6.43011 14.08 6.55011 14.2C6.74011 14.4 6.74011 14.71 6.55011 14.91L6.20011 15.26L5.85011 14.9C5.73011 14.78 5.70011 14.64 5.70011 14.55C5.70011 14.46 5.73011 14.32 5.85011 14.2ZM5.85011 19.85C5.73011 19.97 5.59011 20 5.50011 20C5.41011 20 5.27011 19.97 5.15011 19.85C5.03011 19.73 5.00011 19.59 5.00011 19.5C5.00011 19.41 5.03011 19.27 5.15011 19.15L6.21011 18.09L6.92011 18.8L5.85011 19.85Z" fill="#323232"/>
</svg>
