<svg width="24" height="24" viewBox="0 0 24 24" fill="none" xmlns="http://www.w3.org/2000/svg">
<path d="M9.00009 5V5.38C8.17009 5.05 7.28009 4.88 6.39009 4.88C4.97009 4.88 3.55009 5.31 2.34009 6.17C1.83009 6.53 1.77009 7.26 2.21009 7.7L4.78009 10.27H5.89009V11.38C6.75009 12.24 7.87009 12.69 9.00009 12.74V15H7.00009C6.45009 15 6.00009 15.45 6.00009 16V18C6.00009 19.1 6.90009 20 8.00009 20H18.0001C19.6601 20 21.0001 18.66 21.0001 17V5C21.0001 4.45 20.5501 4 20.0001 4H10.0001C9.45009 4 9.00009 4.45 9.00009 5ZM7.89009 10.41V8.26H5.61009L4.57009 7.22C5.14009 7 5.76009 6.88 6.39009 6.88C7.73009 6.88 8.98009 7.4 9.93009 8.34L11.3401 9.75L11.1401 9.95C10.6301 10.46 9.95009 10.75 9.22009 10.75C8.75009 10.75 8.29009 10.63 7.89009 10.41ZM19.0001 17C19.0001 17.55 18.5501 18 18.0001 18C17.4501 18 17.0001 17.55 17.0001 17V16C17.0001 15.45 16.5501 15 16.0001 15H11.0001V12.41C11.5701 12.18 12.1001 11.84 12.5601 11.38L12.7601 11.18L15.5901 14H17.0001V12.59L11.0001 6.62V6H19.0001V17Z" fill="#323232"/>
</svg>
