<svg width="24" height="24" viewBox="0 0 24 24" fill="none" xmlns="http://www.w3.org/2000/svg">
<path d="M11.0999 12.08C9.09991 8.19998 10.1799 4.71998 11.1699 2.80998C11.3599 2.44998 11.0499 2.03998 10.6399 2.08998C5.61991 2.76998 1.77991 7.15998 1.98991 12.41C1.99991 12.41 1.99991 12.41 1.99991 12.42C2.61991 12.15 3.28991 12 3.99991 12C5.65991 12 7.17991 12.83 8.09991 14.15C9.76991 14.63 10.9999 16.17 10.9999 18C10.9999 19.52 10.1299 20.83 8.87991 21.51C9.85991 21.83 10.9099 22.01 11.9899 22.01C15.1199 22.01 17.9099 20.57 19.7499 18.32C20.0099 18 19.7899 17.53 19.3799 17.5C16.8899 17.37 13.0999 15.97 11.0999 12.08Z" fill="#323232"/>
<path d="M7 16H6.82C6.4 14.84 5.3 14 4 14C2.34 14 1 15.34 1 17C1 18.66 2.34 20 4 20C4.62 20 6.49 20 7 20C8.1 20 9 19.1 9 18C9 16.9 8.1 16 7 16Z" fill="#323232"/>
</svg>
