<svg width="24" height="24" viewBox="0 0 24 24" fill="none" xmlns="http://www.w3.org/2000/svg">
<path d="M19.9299 8.35L16.3299 10.03L13.9999 7.7V6.3L16.3299 3.97L19.9299 5.65C20.3099 5.83 20.7499 5.66 20.9299 5.29C21.1099 4.91 20.9399 4.47 20.5699 4.29L16.6499 2.46C16.2699 2.28 15.8199 2.36 15.5199 2.66L13.7799 4.4C13.5999 4.16 13.3199 4 12.9999 4C12.4499 4 11.9999 4.45 11.9999 5V6H8.81991C8.33991 4.66 6.95991 3.75 5.39991 4.06C4.22991 4.29 3.26991 5.25 3.04991 6.42C2.79991 7.76 3.44991 8.96 4.47991 9.58L7.07991 18H5.49991C4.66991 18 3.99991 18.67 3.99991 19.5C3.99991 20.33 4.66991 21 5.49991 21H15.4999C16.3299 21 16.9999 20.33 16.9999 19.5C16.9999 18.67 16.3299 18 15.4999 18H13.3799L8.40991 8.77C8.57991 8.53 8.71991 8.28 8.81991 8H11.9999V9C11.9999 9.55 12.4499 10 12.9999 10C13.3199 10 13.5999 9.84 13.7799 9.6L15.5199 11.34C15.8199 11.64 16.2699 11.72 16.6499 11.54L20.5699 9.71C20.9499 9.53 21.1099 9.09 20.9299 8.71C20.7499 8.34 20.3099 8.17 19.9299 8.35ZM5.99991 8C5.44991 8 4.99991 7.55 4.99991 7C4.99991 6.45 5.44991 6 5.99991 6C6.54991 6 6.99991 6.45 6.99991 7C6.99991 7.55 6.54991 8 5.99991 8Z" fill="#323232"/>
</svg>
