<svg width="24" height="24" viewBox="0 0 24 24" fill="none" xmlns="http://www.w3.org/2000/svg">
<path d="M13.0001 8.57001C12.2101 8.57001 11.5701 9.21001 11.5701 10C11.5701 10.79 12.2101 11.43 13.0001 11.43C13.7901 11.43 14.4301 10.79 14.4301 10C14.4301 9.21001 13.7901 8.57001 13.0001 8.57001Z" fill="#323232"/>
<path d="M13.2101 3.00002C9.37007 2.89002 6.21007 5.87002 6.02007 9.64002L4.10007 12.2C3.85007 12.53 4.09007 13 4.50007 13H6.00007V16C6.00007 17.1 6.90007 18 8.00007 18H9.00007V20C9.00007 20.55 9.45007 21 10.0001 21H15.0001C15.5501 21 16.0001 20.55 16.0001 20V16.32C18.4401 15.16 20.1001 12.64 20.0001 9.74002C19.8601 6.12002 16.8201 3.11002 13.2101 3.00002ZM16.0001 10C16.0001 10.13 15.9901 10.26 15.9801 10.39L16.8101 11.05C16.8901 11.11 16.9101 11.21 16.8601 11.3L16.0601 12.69C16.0101 12.78 15.9001 12.81 15.8201 12.78L14.8301 12.38C14.6201 12.54 14.4001 12.67 14.1601 12.77L14.0001 13.83C13.9901 13.93 13.9001 14 13.8001 14H12.2001C12.1001 14 12.0201 13.93 12.0001 13.83L11.8501 12.77C11.6001 12.67 11.3801 12.54 11.1701 12.38L10.1801 12.78C10.0901 12.81 9.98007 12.78 9.93007 12.69L9.13007 11.3C9.08007 11.22 9.10007 11.11 9.18007 11.05L10.0201 10.39C10.0101 10.26 10.0001 10.13 10.0001 10C10.0001 9.87002 10.0201 9.73002 10.0401 9.61002L9.19007 8.95002C9.11007 8.89002 9.09007 8.79002 9.14007 8.69002L9.94007 7.31002C9.99007 7.22002 10.0901 7.19002 10.1801 7.22002L11.1801 7.62002C11.3801 7.47002 11.6101 7.33002 11.8501 7.23002L12.0001 6.17002C12.0201 6.07002 12.1001 6.00002 12.2001 6.00002H13.8001C13.9001 6.00002 13.9801 6.07002 14.0001 6.17002L14.1501 7.23002C14.3901 7.33002 14.6101 7.46002 14.8201 7.62002L15.8201 7.22002C15.9101 7.19002 16.0201 7.22002 16.0601 7.31002L16.8601 8.69002C16.9101 8.78002 16.8901 8.89002 16.8101 8.95002L15.9601 9.61002C15.9901 9.73002 16.0001 9.86002 16.0001 10Z" fill="#323232"/>
</svg>
