<svg width="24" height="24" viewBox="0 0 24 24" fill="none" xmlns="http://www.w3.org/2000/svg">
<path d="M11.9999 11.39C11.9999 10.74 11.6099 10.16 11.0199 9.91002L5.43989 7.55002C3.95989 9.23002 3.11989 11.25 2.63989 13H10.3899C11.2799 13 11.9999 12.28 11.9999 11.39Z" fill="#323232"/>
<path d="M21.96 11.22C21.55 6.81001 17.4 3.73001 12.98 4.02001C10.47 4.18001 8.54 4.96001 7.05 6.06001L11.79 8.07001C13.12 8.64001 13.99 9.94001 13.99 11.39C13.99 13.38 12.37 15 10.38 15H2.21C2 16.31 2 17.2 2 17.2V18C2 19.1 2.9 20 4 20H14C18.67 20 22.41 15.99 21.96 11.22Z" fill="#323232"/>
</svg>
