<svg width="24" height="24" viewBox="0 0 24 24" fill="none" xmlns="http://www.w3.org/2000/svg">
<path d="M14.27 5.99999C13.72 6.94999 14.05 8.17998 15 8.72998C15.95 9.27998 17.18 8.94999 17.73 7.99998C18.28 7.04998 17.95 5.81999 17 5.26999C16.05 4.71999 14.82 5.04999 14.27 5.99999Z" fill="#323232"/>
<path d="M15.84 10.41C15.84 10.41 14.21 9.46999 13.24 8.90999C11.11 7.66999 10.23 5.07999 11.06 2.83999C11.23 2.37999 11.05 1.86999 10.63 1.62999C10.1 1.32999 9.40998 1.55999 9.19998 2.12999C8.24998 4.63999 8.84998 7.47999 10.66 9.39999L6.00998 17.45C5.72998 17.93 5.89998 18.54 6.37998 18.82C6.85998 19.1 7.46998 18.93 7.74998 18.45L8.74998 16.72L10.48 17.72L7.97998 22.05C7.69998 22.53 7.86998 23.14 8.34998 23.42C8.82998 23.7 9.43998 23.53 9.71998 23.05L15.51 13.03C16.49 14.37 16.77 16.15 16.17 17.75C16 18.2 16.19 18.71 16.6 18.95C17.13 19.26 17.82 19.03 18.04 18.45C19.01 15.83 18.45 12.61 15.84 10.41Z" fill="#323232"/>
<path d="M12.7499 3.79999C13.4699 4.20999 14.3799 3.96999 14.7999 3.24999C15.2099 2.52999 14.9699 1.61999 14.2499 1.19999C13.5299 0.78999 12.6199 1.02999 12.1999 1.74999C11.7899 2.46999 12.0299 3.38999 12.7499 3.79999Z" fill="#323232"/>
</svg>
