<svg width="24" height="24" viewBox="0 0 24 24" fill="none" xmlns="http://www.w3.org/2000/svg">
<path d="M3.0201 15.62C2.9401 18.04 3.3401 19.96 3.6901 20.31C4.0401 20.66 5.9701 21.07 8.3801 20.98L3.0201 15.62Z" fill="#323232"/>
<path d="M13.08 3.28C10.75 3.7 8.29003 4.62 6.46003 6.46C4.63003 8.3 3.70003 10.75 3.28003 13.08L10.91 20.71C13.25 20.3 15.7 19.37 17.53 17.53C19.36 15.69 20.29 13.24 20.71 10.91L13.08 3.28ZM14.8 10.6L10.6 14.8C10.21 15.19 9.59003 15.19 9.20003 14.8C8.81003 14.41 8.81003 13.79 9.20003 13.4L13.4 9.2C13.79 8.81 14.41 8.81 14.8 9.2C15.19 9.59 15.19 10.21 14.8 10.6Z" fill="#323232"/>
<path d="M20.9801 8.38001C21.0601 5.96001 20.6601 4.04001 20.3101 3.69001C19.9601 3.34001 18.0301 2.93001 15.6201 3.02001L20.9801 8.38001Z" fill="#323232"/>
</svg>
