<svg width="24" height="24" viewBox="0 0 24 24" fill="none" xmlns="http://www.w3.org/2000/svg">
<path d="M17.0901 11H21.9501C21.7901 9.38998 21.2401 7.88998 20.4101 6.59998C18.6801 7.42998 17.4201 9.04998 17.0901 11Z" fill="#323232"/>
<path d="M6.91005 11C6.58005 9.04998 5.32005 7.42998 3.59005 6.59998C2.76005 7.88998 2.21005 9.38998 2.05005 11H6.91005Z" fill="#323232"/>
<path d="M15.07 11C15.39 8.40999 16.95 6.20999 19.13 4.99999C17.53 3.36999 15.39 2.28999 13 2.04999V11H15.07Z" fill="#323232"/>
<path d="M8.93012 11H11.0001V2.04999C8.61012 2.28999 6.46012 3.36999 4.87012 4.99999C7.05012 6.20999 8.61012 8.40999 8.93012 11Z" fill="#323232"/>
<path d="M15.07 13H13V21.95C15.39 21.71 17.54 20.63 19.13 19C16.95 17.79 15.39 15.59 15.07 13Z" fill="#323232"/>
<path d="M3.59005 17.4C5.31005 16.57 6.58005 14.94 6.91005 13H2.05005C2.21005 14.61 2.76005 16.11 3.59005 17.4Z" fill="#323232"/>
<path d="M17.0901 13C17.4201 14.95 18.6801 16.57 20.4101 17.4C21.2401 16.11 21.7901 14.61 21.9501 13H17.0901Z" fill="#323232"/>
<path d="M8.93012 13C8.61012 15.59 7.05012 17.79 4.87012 19C6.47012 20.63 8.61012 21.71 11.0001 21.95V13H8.93012Z" fill="#323232"/>
</svg>
