<svg width="24" height="24" viewBox="0 0 24 24" fill="none" xmlns="http://www.w3.org/2000/svg">
<path d="M15.0501 12.81L6.56009 4.32C6.17009 3.93 5.54009 3.93 5.15009 4.32L2.32009 7.15C1.93009 7.54 1.93009 8.17 2.32009 8.56L10.8101 17.05C11.2001 17.44 11.8301 17.44 12.2201 17.05L15.0501 14.22C15.4401 13.83 15.4401 13.2 15.0501 12.81Z" fill="#323232"/>
<path d="M14.3401 17.76L17.8701 21.29C18.2601 21.68 18.9001 21.68 19.2901 21.29C19.6801 20.9 19.6801 20.26 19.2901 19.87L15.7601 16.34L14.3401 17.76Z" fill="#323232"/>
<path d="M18.5 9C20.433 9 22 7.433 22 5.5C22 3.567 20.433 2 18.5 2C16.567 2 15 3.567 15 5.5C15 7.433 16.567 9 18.5 9Z" fill="#323232"/>
</svg>
