<svg width="24" height="24" viewBox="0 0 24 24" fill="none" xmlns="http://www.w3.org/2000/svg">
<path d="M17.09 4.55999C16.39 3.52999 15.59 2.56999 14.69 1.70999C14.34 1.36999 13.75 1.68999 13.85 2.16999C14.04 3.10999 14.24 4.34999 14.24 5.45999C14.24 7.51999 12.89 9.18999 10.83 9.18999C9.29 9.18999 8.03 8.25999 7.48 6.92999C7.38 6.72999 7.34 6.60999 7.28 6.38999C7.17 5.96999 6.62 5.83999 6.38 6.20999C6.2 6.47999 6.03 6.74999 5.87 7.03999C4.68 9.07999 4 11.46 4 14C4 18.42 7.58 22 12 22C16.42 22 20 18.42 20 14C20 10.51 18.92 7.26999 17.09 4.55999ZM11.71 19C9.93 19 8.49 17.6 8.49 15.86C8.49 14.24 9.54 13.1 11.3 12.74C12.77 12.44 14.28 11.81 15.33 10.82C15.61 10.56 16.07 10.68 16.15 11.05C16.38 12.07 16.5 13.13 16.5 14.2C16.51 16.85 14.36 19 11.71 19Z" fill="#323232"/>
</svg>
