<svg width="24" height="24" viewBox="0 0 24 24" fill="none" xmlns="http://www.w3.org/2000/svg">
<path d="M9.77994 11.16L8.35994 12.58C7.67994 11.89 7.01994 11 6.56994 9.64001L8.50994 9.15001C8.82994 10.04 9.27994 10.65 9.77994 11.16ZM10.1499 5.15001L7.34994 2.35001C7.14994 2.15001 6.83994 2.15001 6.63994 2.35001L3.84994 5.15001C3.53994 5.46001 3.75994 6.00001 4.20994 6.00001H6.01994C6.03994 6.81001 6.09994 7.54001 6.20994 8.17001L8.14994 7.68001C8.07994 7.20001 8.02994 6.63001 8.01994 6.00001H9.79994C10.2399 6.00001 10.4599 5.46001 10.1499 5.15001ZM20.1499 5.15001L17.3599 2.36001C17.1599 2.16001 16.8499 2.16001 16.6499 2.36001L13.8599 5.15001C13.5399 5.46001 13.7599 6.00001 14.2099 6.00001H15.9899C15.8899 9.68001 14.7099 10.75 13.4499 11.88C12.9499 12.32 12.4399 12.8 11.9999 13.43C11.6599 12.94 11.2699 12.55 10.8699 12.19L9.45994 13.6C10.3899 14.45 10.9999 15.14 10.9999 17V21C10.9999 21.55 11.4499 22 11.9999 22C12.5499 22 12.9999 21.55 12.9999 21V17C12.9999 14.98 13.7099 14.34 14.7899 13.37C16.1699 12.13 17.8699 10.59 17.9899 6.00001H19.7899C20.2399 6.00001 20.4599 5.46001 20.1499 5.15001Z" fill="#323232"/>
</svg>
