<svg width="24" height="24" viewBox="0 0 24 24" fill="none" xmlns="http://www.w3.org/2000/svg">
<path d="M21.7099 11.29L12.7099 2.29C12.3199 1.9 11.6899 1.9 11.2999 2.29L2.29995 11.29C1.90995 11.68 1.90995 12.31 2.29995 12.7L11.2999 21.7C11.6899 22.09 12.3199 22.09 12.7099 21.7L21.7099 12.7C22.0999 12.32 22.0999 11.69 21.7099 11.29ZM13.9999 14.5V12H9.99995V14C9.99995 14.55 9.54995 15 8.99995 15C8.44995 15 7.99995 14.55 7.99995 14V11C7.99995 10.45 8.44995 10 8.99995 10H13.9999V7.5L17.1499 10.65C17.3499 10.85 17.3499 11.16 17.1499 11.36L13.9999 14.5Z" fill="#323232"/>
</svg>
