<svg width="24" height="24" viewBox="0 0 24 24" fill="none" xmlns="http://www.w3.org/2000/svg">
<path d="M12 22C16.56 22 20.33 18.6 20.92 14.2C21.01 13.56 20.44 12.99 19.8 13.08C15.4 13.67 12 17.44 12 22ZM5.59996 10.25C5.59996 11.63 6.71996 12.75 8.09996 12.75C8.62996 12.75 9.10996 12.59 9.51996 12.31L9.49996 12.5C9.49996 13.88 10.62 15 12 15C13.38 15 14.5 13.88 14.5 12.5L14.48 12.31C14.88 12.59 15.37 12.75 15.9 12.75C17.28 12.75 18.4 11.63 18.4 10.25C18.4 9.25 17.81 8.4 16.97 8C17.81 7.6 18.4 6.75 18.4 5.75C18.4 4.37 17.28 3.25 15.9 3.25C15.37 3.25 14.89 3.41 14.48 3.69L14.5 3.5C14.5 2.12 13.38 1 12 1C10.62 1 9.49996 2.12 9.49996 3.5L9.51996 3.69C9.11996 3.41 8.62996 3.25 8.09996 3.25C6.71996 3.25 5.59996 4.37 5.59996 5.75C5.59996 6.75 6.18996 7.6 7.02996 8C6.18996 8.4 5.59996 9.25 5.59996 10.25ZM12 5.5C13.38 5.5 14.5 6.62 14.5 8C14.5 9.38 13.38 10.5 12 10.5C10.62 10.5 9.49996 9.38 9.49996 8C9.49996 6.62 10.62 5.5 12 5.5ZM3.07996 14.2C3.66996 18.6 7.43996 22 12 22C12 17.44 8.59996 13.67 4.19996 13.08C3.55996 12.99 2.98996 13.56 3.07996 14.2Z" fill="#323232"/>
</svg>
