<svg width="24" height="24" viewBox="0 0 24 24" fill="none" xmlns="http://www.w3.org/2000/svg">
<path d="M21 18.17L19 16.17V14H18C16.9 14 16 13.1 16 12V6C16 4.51 17.6 2.68 19.76 2.15C20.39 2 21 2.48 21 3.13V18.17ZM21.19 22.61C20.8 23 20.17 23 19.78 22.61L10.02 12.85C9.69003 12.94 9.36003 13 9.00003 13V21C9.00003 21.55 8.55003 22 8.00003 22C7.45003 22 7.00003 21.55 7.00003 21V13C4.79003 13 3.00003 11.21 3.00003 9V5.83L1.39003 4.22C1.00003 3.83 1.00003 3.2 1.39003 2.81C1.78003 2.42 2.41003 2.42 2.80003 2.81L21.18 21.19C21.58 21.58 21.58 22.22 21.19 22.61ZM6.17003 9L5.00003 7.83V9H6.17003ZM13 9V3C13 2.45 12.55 2 12 2C11.45 2 11 2.45 11 3V8.17L12.85 10.02C12.94 9.69 13 9.36 13 9ZM9.00003 3C9.00003 2.45 8.55003 2 8.00003 2C7.45003 2 7.00003 2.45 7.00003 3V4.17L9.00003 6.17V3Z" fill="#323232"/>
</svg>
