<svg width="24" height="24" viewBox="0 0 24 24" fill="none" xmlns="http://www.w3.org/2000/svg">
<path d="M19.28 4.93001L17.16 2.81001C16.38 2.03001 15.11 2.03001 14.33 2.81001L11.5 5.64001L13.62 7.76001L15.74 5.64001L19.28 9.18001C20.45 8.00001 20.45 6.10001 19.28 4.93001Z" fill="#323232"/>
<path d="M5.48999 13.77C6.07999 14.36 7.02999 14.36 7.60999 13.77L10.08 11.3L7.95999 9.17001L5.48999 11.64C4.89999 12.23 4.89999 13.18 5.48999 13.77Z" fill="#323232"/>
<path d="M14.33 8.46002L13.62 9.17002L10.44 5.99002C9.84997 5.40002 8.89997 5.40002 8.31997 5.99002C7.72997 6.58002 7.72997 7.53002 8.31997 8.11002L11.5 11.29L4.49997 18.29C3.79997 18.99 3.61997 20.13 4.20997 20.94C4.94997 21.97 6.39997 22.06 7.25997 21.2L16.45 12C16.84 12.39 17.47 12.39 17.86 12C18.25 11.61 18.25 10.98 17.86 10.59L15.74 8.47002C15.35 8.07002 14.72 8.07002 14.33 8.46002Z" fill="#323232"/>
</svg>
