<svg width="24" height="24" viewBox="0 0 24 24" fill="none" xmlns="http://www.w3.org/2000/svg">
<path d="M10.23 15.83C10.62 16.22 11.25 16.22 11.64 15.83L15.88 11.59C16.27 11.2 16.27 10.57 15.88 10.17C15.49 9.78 14.86 9.78 14.47 10.17L10.93 13.7L9.51997 12.29C9.12997 11.9 8.49997 11.9 8.09997 12.29C7.69997 12.68 7.70997 13.31 8.09997 13.7L10.23 15.83Z" fill="#323232"/>
<path d="M19 4H5C3.89 4 3 4.9 3 6V18C3 19.1 3.89 20 5 20H19C20.1 20 21 19.1 21 18V6C21 4.9 20.11 4 19 4ZM19 17C19 17.55 18.55 18 18 18H6C5.45 18 5 17.55 5 17V8H19V17Z" fill="#323232"/>
</svg>
