<svg width="24" height="24" viewBox="0 0 24 24" fill="none" xmlns="http://www.w3.org/2000/svg">
<path d="M19.29 17.89L6.10997 4.69999C5.71997 4.30999 5.08997 4.30999 4.69997 4.69999C4.30997 5.08999 4.30997 5.71999 4.69997 6.10999L10.59 12L5.69997 16.89C5.30997 17.28 5.30997 17.91 5.69997 18.3C6.08997 18.69 6.71997 18.69 7.10997 18.3L11 14.41V20.59C11 21.48 12.08 21.93 12.71 21.3L16.3 17.71L17.89 19.3C18.28 19.69 18.91 19.69 19.3 19.3C19.68 18.91 19.68 18.27 19.29 17.89ZM13 18.17V14.41L14.88 16.29L13 18.17ZM13 5.82999L14.88 7.70999L13.41 9.17999L14.82 10.59L17 8.41999C17.39 8.02999 17.39 7.39999 17 6.99999L12.71 2.70999C12.08 2.07999 11 2.51999 11 3.40999V6.76999L13 8.76999V5.82999Z" fill="#323232"/>
</svg>
