<svg width="24" height="24" viewBox="0 0 24 24" fill="none" xmlns="http://www.w3.org/2000/svg">
<path d="M5.9999 13C6.5499 12.45 6.5499 11.56 5.9999 11.01V11C5.4499 10.45 4.5499 10.45 3.9999 11C3.4499 11.55 3.4499 12.45 3.9999 13C4.5499 13.55 5.4499 13.55 5.9999 13ZM19.9999 11C19.4399 10.44 18.5499 10.44 17.9999 10.99V11C17.4499 11.55 17.4499 12.44 17.9999 12.99V13C18.5499 13.55 19.4399 13.55 19.9899 13H19.9999C20.5499 12.45 20.5499 11.55 19.9999 11ZM16.9999 6.99999L12.7099 2.70999C12.0799 2.07999 10.9999 2.51999 10.9999 3.40999V9.58999L7.1099 5.69999C6.7199 5.30999 6.0899 5.30999 5.6999 5.69999C5.3099 6.08999 5.3099 6.71999 5.6999 7.10999L10.5899 12L5.6999 16.89C5.3099 17.28 5.3099 17.91 5.6999 18.3C6.0899 18.69 6.7199 18.69 7.1099 18.3L10.9999 14.41V20.59C10.9999 21.48 12.0799 21.93 12.7099 21.3L16.9999 17C17.3899 16.61 17.3899 15.98 16.9999 15.58L13.4099 12L16.9999 8.41999C17.3899 8.02999 17.3899 7.38999 16.9999 6.99999ZM14.8799 16.29L12.9999 18.17V14.41L14.8799 16.29ZM12.9999 9.58999V5.82999L14.8799 7.70999L12.9999 9.58999Z" fill="#323232"/>
</svg>
