<svg width="24" height="24" viewBox="0 0 24 24" fill="none" xmlns="http://www.w3.org/2000/svg">
<path d="M17 6.99999L12.71 2.70999C12.08 2.07999 11 2.51999 11 3.40999V9.58999L7.10997 5.69999C6.71997 5.30999 6.08997 5.30999 5.69997 5.69999C5.30997 6.08999 5.30997 6.71999 5.69997 7.10999L10.59 12L5.69997 16.89C5.30997 17.28 5.30997 17.91 5.69997 18.3C6.08997 18.69 6.71997 18.69 7.10997 18.3L11 14.41V20.59C11 21.48 12.08 21.93 12.71 21.3L17 17C17.39 16.61 17.39 15.98 17 15.59L13.41 12L17 8.41999C17.39 8.02999 17.39 7.38999 17 6.99999ZM13 5.82999L14.88 7.70999L13 9.58999V5.82999ZM14.88 16.29L13 18.17V14.41L14.88 16.29Z" fill="#323232"/>
</svg>
