<svg width="24" height="24" viewBox="0 0 24 24" fill="none" xmlns="http://www.w3.org/2000/svg">
<path d="M19.9999 15.31L21.8999 13.41C22.6799 12.63 22.6799 11.36 21.8999 10.58L19.9999 8.69001V6.00001C19.9999 4.90001 19.0999 4.00001 17.9999 4.00001H15.3099L13.4099 2.10001C12.6299 1.32001 11.3599 1.32001 10.5799 2.10001L8.68989 4.00001H5.99989C4.89989 4.00001 3.99989 4.90001 3.99989 6.00001V8.69001L2.09989 10.59C1.31989 11.37 1.31989 12.64 2.09989 13.42L3.99989 15.32V18C3.99989 19.1 4.89989 20 5.99989 20H8.68989L10.5899 21.9C11.3699 22.68 12.6399 22.68 13.4199 21.9L15.3199 20H17.9999C19.0999 20 19.9999 19.1 19.9999 18V15.31ZM11.9999 16.9V7.10001C11.9999 6.49001 12.5499 5.99002 13.1499 6.11001C15.9099 6.65001 17.9999 9.08001 17.9999 12C17.9999 14.92 15.9099 17.35 13.1499 17.89C12.5499 18.01 11.9999 17.51 11.9999 16.9Z" fill="#323232"/>
</svg>
