<svg width="24" height="24" viewBox="0 0 24 24" fill="none" xmlns="http://www.w3.org/2000/svg">
<path d="M12.9999 3.87003V3.89003C12.9999 4.56003 13.4499 5.12003 14.0799 5.32003C16.9299 6.21003 18.9999 8.86003 18.9999 12C18.9999 12.52 18.9399 13.01 18.8299 13.49C18.6899 14.13 18.9499 14.79 19.5199 15.13L19.5299 15.14C20.3899 15.64 21.5099 15.19 21.7399 14.23C21.9099 13.51 21.9999 12.76 21.9999 12C21.9999 7.50003 19.0199 3.68003 14.9199 2.43003C13.9699 2.14003 12.9999 2.87003 12.9999 3.87003ZM10.9399 18.92C7.94991 18.49 5.51991 16.06 5.07991 13.08C4.53991 9.48003 6.73991 6.31003 9.90991 5.32003C10.5499 5.13003 10.9999 4.56003 10.9999 3.89003V3.87003C10.9999 2.87003 10.0299 2.14003 9.06991 2.43003C4.55991 3.81003 1.40991 8.29003 2.08991 13.39C2.67991 17.77 6.21991 21.31 10.5999 21.9C13.7399 22.32 16.6399 21.29 18.7299 19.37C19.4699 18.69 19.3399 17.48 18.4699 16.98C17.8899 16.64 17.1699 16.75 16.6699 17.2C15.1999 18.54 13.1599 19.25 10.9399 18.92Z" fill="#323232"/>
</svg>
