<svg width="24" height="24" viewBox="0 0 24 24" fill="none" xmlns="http://www.w3.org/2000/svg">
<path d="M19.0001 1H9.00012C7.90012 1 7.00012 1.9 7.00012 3V5C7.00012 5.55 7.45012 6 8.00012 6C8.55012 6 9.00012 5.55 9.00012 5V4H19.0001V20H9.00012V19C9.00012 18.45 8.55012 18 8.00012 18C7.45012 18 7.00012 18.45 7.00012 19V21C7.00012 22.1 7.90012 23 9.00012 23H19.0001C20.1001 23 21.0001 22.1 21.0001 21V3C21.0001 1.9 20.1001 1 19.0001 1ZM7.01012 13.47L5.09012 11.55C4.74012 11.2 4.17012 11.2 3.82012 11.55C3.47012 11.9 3.47012 12.47 3.82012 12.82L6.29012 15.29C6.68012 15.68 7.31012 15.68 7.70012 15.29L13.5501 9.44C13.9001 9.09 13.9001 8.52 13.5501 8.17C13.2001 7.82 12.6301 7.82 12.2801 8.17L7.01012 13.47Z" fill="#323232"/>
</svg>
