<svg width="24" height="24" viewBox="0 0 24 24" fill="none" xmlns="http://www.w3.org/2000/svg">
<path d="M19.0001 5C19.0001 3.9 18.1001 3 17.0001 3H10.8301C10.3001 3 9.79011 3.21 9.41011 3.59L7.95011 5.06L19.0001 16.11V5ZM3.09011 4.44C2.70011 4.83 2.70011 5.46 3.09011 5.85L5.00011 7.78V19C5.00011 20.11 5.90011 21 7.00011 21H18.2301L19.1401 21.91C19.5301 22.3 20.1601 22.3 20.5501 21.91C20.9401 21.52 20.9401 20.89 20.5501 20.5L4.50011 4.44C4.11011 4.05 3.48011 4.05 3.09011 4.44Z" fill="#323232"/>
</svg>
