<svg width="24" height="24" viewBox="0 0 24 24" fill="none" xmlns="http://www.w3.org/2000/svg">
<path d="M21.0001 18C21.5501 18 22.0001 17.55 22.0001 17V11C22.0001 10.45 21.5501 10 21.0001 10C20.4501 10 20.0001 10.45 20.0001 11V17C20.0001 17.55 20.4501 18 21.0001 18ZM20.0001 22H22.0001V20H20.0001V22ZM4.41005 22H18.0001V11C18.0001 9.34002 19.3401 8.00002 21.0001 8.00002H22.0001V4.41002C22.0001 3.52002 20.9201 3.07002 20.2901 3.70002L3.71005 20.29C3.08005 20.92 3.52005 22 4.41005 22Z" fill="#323232"/>
</svg>
