<svg width="24" height="24" viewBox="0 0 24 24" fill="none" xmlns="http://www.w3.org/2000/svg">
<path d="M18 7.00001H16C15.45 7.00001 15 7.45001 15 8.00001V10C15 10.55 15.45 11 16 11V13H13V5.00001H14C14.41 5.00001 14.65 4.53001 14.4 4.20001L12.4 1.53001C12.2 1.26001 11.8 1.26001 11.6 1.53001L9.60005 4.20001C9.35005 4.53001 9.59005 5.00001 10 5.00001H11V13H8.00005V10.93C8.83005 10.49 9.38005 9.57001 9.14005 8.50001C8.97005 7.73001 8.37005 7.10001 7.62005 6.89001C6.15005 6.48001 4.80005 7.59001 4.80005 9.00001C4.80005 9.85001 5.30005 10.56 6.00005 10.93V13C6.00005 14.1 6.90005 15 8.00005 15H11V18.05C10.14 18.5 9.61005 19.47 9.87005 20.54C10.05 21.29 10.66 21.92 11.41 22.12C12.87 22.51 14.21 21.42 14.21 20C14.21 19.15 13.72 18.42 13.01 18.05V15H16.01C17.11 15 18.01 14.1 18.01 13V11C18.56 11 19.01 10.55 19.01 10V8.00001C19 7.45001 18.55 7.00001 18 7.00001Z" fill="#323232"/>
</svg>
