<svg width="24" height="24" viewBox="0 0 24 24" fill="none" xmlns="http://www.w3.org/2000/svg">
<path d="M13 14V20C13 20.55 13.45 21 14 21H20C20.55 21 21 20.55 21 20V14C21 13.45 20.55 13 20 13H14C13.45 13 13 13.45 13 14ZM4 21H10C10.55 21 11 20.55 11 20V14C11 13.45 10.55 13 10 13H4C3.45 13 3 13.45 3 14V20C3 20.55 3.45 21 4 21ZM3 3.99998V9.99998C3 10.55 3.45 11 4 11H10C10.55 11 11 10.55 11 9.99998V3.99998C11 3.44998 10.55 2.99998 10 2.99998H4C3.45 2.99998 3 3.44998 3 3.99998ZM15.95 2.39998L11.7 6.63998C11.31 7.02998 11.31 7.65998 11.7 8.04998L15.95 12.3C16.34 12.69 16.97 12.69 17.36 12.3L21.61 8.04998C22 7.65998 22 7.02998 21.61 6.63998L17.37 2.39998C16.98 2.00998 16.34 2.00998 15.95 2.39998Z" fill="#323232"/>
</svg>
