<svg width="24" height="24" viewBox="0 0 24 24" fill="none" xmlns="http://www.w3.org/2000/svg">
<path d="M12.0001 11C10.9001 11 10.0001 11.9 10.0001 13C10.0001 14.1 10.9001 15 12.0001 15C13.1001 15 14.0001 14.1 14.0001 13C14.0001 11.9 13.1001 11 12.0001 11ZM18.0001 13C18.0001 9.44001 14.8901 6.60001 11.2501 7.05001C8.63005 7.37001 6.47005 9.46001 6.07005 12.07C5.74005 14.22 6.56005 16.18 8.00005 17.47C8.48005 17.9 9.23005 17.8 9.56005 17.24L9.57005 17.23C9.81005 16.81 9.71005 16.3 9.35005 15.97C8.32005 15.04 7.76005 13.6 8.13005 12.03C8.46005 10.61 9.61005 9.46001 11.0301 9.12001C13.6501 8.49001 16.0001 10.47 16.0001 13C16.0001 14.18 15.4801 15.23 14.6701 15.96C14.3101 16.28 14.2001 16.8 14.4401 17.22L14.4501 17.23C14.7601 17.76 15.4801 17.92 15.9501 17.51C17.2001 16.41 18.0001 14.8 18.0001 13ZM10.8301 3.07001C6.21005 3.59001 2.48005 7.40001 2.05005 12.03C1.70005 15.73 3.37005 19.05 6.07005 21.04C6.55005 21.39 7.23005 21.24 7.53005 20.73C7.78005 20.3 7.67005 19.74 7.27005 19.44C4.99005 17.75 3.62005 14.89 4.11005 11.74C4.65005 8.24001 7.57005 5.45001 11.0901 5.06001C15.9101 4.51001 20.0001 8.28001 20.0001 13C20.0001 15.65 18.7101 17.98 16.7301 19.44C16.3301 19.74 16.2201 20.29 16.4701 20.73C16.7701 21.25 17.4501 21.39 17.9301 21.04C20.4001 19.22 22.0001 16.3 22.0001 13C22.0001 7.09001 16.8701 2.38001 10.8301 3.07001Z" fill="#323232"/>
</svg>
