<svg width="24" height="24" viewBox="0 0 24 24" fill="none" xmlns="http://www.w3.org/2000/svg">
<path d="M9.99999 10V14C9.99999 14.55 10.45 15 11 15C11.55 15 12 14.55 12 14V4H14V14C14 14.55 14.45 15 15 15C15.55 15 16 14.55 16 14V4H17C17.55 4 18 3.55 18 3C18 2.45 17.55 2 17 2H10.17C8.07999 2 6.21999 3.53 6.01999 5.61C5.78999 7.99 7.65999 10 9.99999 10ZM7.99999 17V15.21C7.99999 14.76 7.45999 14.54 7.14999 14.86L4.35999 17.65C4.15999 17.85 4.15999 18.16 4.35999 18.36L7.14999 21.15C7.45999 21.46 7.99999 21.24 7.99999 20.79V19H19C19.55 19 20 18.55 20 18C20 17.45 19.55 17 19 17H7.99999Z" fill="#323232"/>
</svg>
