<svg width="24" height="24" viewBox="0 0 24 24" fill="none" xmlns="http://www.w3.org/2000/svg">
<path d="M20 15.31L22.6 12.71C22.99 12.32 22.99 11.69 22.6 11.3L20 8.68998V4.99998C20 4.44998 19.55 3.99998 19 3.99998H15.31L12.71 1.39998C12.32 1.00998 11.69 1.00998 11.3 1.39998L8.68998 3.99998H4.99998C4.44998 3.99998 3.99998 4.44998 3.99998 4.99998V8.68998L1.39998 11.29C1.00998 11.68 1.00998 12.31 1.39998 12.7L3.99998 15.3V19C3.99998 19.55 4.44998 20 4.99998 20H8.68998L11.29 22.6C11.68 22.99 12.31 22.99 12.7 22.6L15.3 20H19C19.55 20 20 19.55 20 19V15.31ZM12 16.9V7.09998C12 6.48998 12.55 5.98998 13.15 6.10998C15.91 6.64998 18 9.07998 18 12C18 14.92 15.91 17.35 13.15 17.89C12.55 18.01 12 17.51 12 16.9Z" fill="#323232"/>
</svg>
