<svg width="24" height="24" viewBox="0 0 24 24" fill="none" xmlns="http://www.w3.org/2000/svg">
<path d="M20 15.31L22.6 12.71C22.99 12.32 22.99 11.69 22.6 11.3L20 8.68998V4.99998C20 4.44998 19.55 3.99998 19 3.99998H15.31L12.71 1.39998C12.32 1.00998 11.69 1.00998 11.3 1.39998L8.69001 3.99998H5.00001C4.45001 3.99998 4.00001 4.44998 4.00001 4.99998V8.68998L1.40001 11.29C1.01001 11.68 1.01001 12.31 1.40001 12.7L4.00001 15.3V19C4.00001 19.55 4.45001 20 5.00001 20H8.69001L11.29 22.6C11.68 22.99 12.31 22.99 12.7 22.6L15.3 20H19C19.55 20 20 19.55 20 19V15.31ZM12 18C8.69001 18 6.00001 15.31 6.00001 12C6.00001 8.68998 8.69001 5.99998 12 5.99998C15.31 5.99998 18 8.68998 18 12C18 15.31 15.31 18 12 18Z" fill="#323232"/>
</svg>
