<svg width="24" height="24" viewBox="0 0 24 24" fill="none" xmlns="http://www.w3.org/2000/svg">
<path d="M9 12C9 13.66 10.34 15 12 15C13.66 15 15 13.66 15 12C15 10.34 13.66 9 12 9C10.34 9 9 10.34 9 12Z" fill="#323232"/>
<path d="M8 9C8 8.45 7.55 8 7 8H5.09C6.47 5.61 9.05 4 12 4C15.49 4 18.45 6.24 19.54 9.36C19.68 9.75 20.07 10 20.48 10C21.16 10 21.66 9.33 21.44 8.69C20.07 4.79 16.36 2 12 2C8.73 2 5.82 3.58 4 6.01V5C4 4.45 3.55 4 3 4C2.45 4 2 4.45 2 5V9C2 9.55 2.45 10 3 10H7C7.55 10 8 9.55 8 9Z" fill="#323232"/>
<path d="M16 15C16 15.55 16.45 16 17 16H18.91C17.53 18.39 14.95 20 12 20C8.51001 20 5.55001 17.76 4.46001 14.64C4.32001 14.25 3.93001 14 3.52001 14C2.84001 14 2.34001 14.67 2.56001 15.31C3.93001 19.21 7.64001 22 12 22C15.27 22 18.18 20.42 20 17.99V19C20 19.55 20.45 20 21 20C21.55 20 22 19.55 22 19V15C22 14.45 21.55 14 21 14H17C16.45 14 16 14.45 16 15Z" fill="#323232"/>
</svg>
