<svg width="24" height="24" viewBox="0 0 24 24" fill="none" xmlns="http://www.w3.org/2000/svg">
<path d="M8.00001 3.99999V4.88999L10 6.88999V3.99999H14V7.99999H11.11L13.11 9.99999H14V10.89L16 12.89V9.99999H20V14H17.11L19.11 16H20V16.89L22 18.89V3.99999C22 2.89999 21.1 1.99999 20 1.99999H5.11001L7.11001 3.99999H8.00001ZM16 3.99999H19C19.55 3.99999 20 4.44999 20 4.99999V7.99999H16V3.99999ZM22.16 21.88L2.12001 1.83999C1.73001 1.44999 1.10001 1.44999 0.710011 1.83999C0.320011 2.22999 0.320011 2.85999 0.710011 3.24999L2.00001 4.54999V20C2.00001 21.1 2.90001 22 4.00001 22H19.45L20.75 23.3C21.14 23.69 21.77 23.69 22.16 23.3C22.55 22.91 22.55 22.27 22.16 21.88ZM10 12.55L11.45 14H10V12.55ZM4.00001 6.54999L5.45001 7.99999H4.00001V6.54999ZM8.00001 20H5.00001C4.45001 20 4.00001 19.55 4.00001 19V16H8.00001V20ZM8.00001 14H4.00001V9.99999H7.45001L8.00001 10.55V14ZM14 20H10V16H13.45L14 16.55V20ZM16 20V18.55L17.45 20H16Z" fill="#323232"/>
</svg>
