<svg width="24" height="24" viewBox="0 0 24 24" fill="none" xmlns="http://www.w3.org/2000/svg">
<path d="M21.19 21.19L20.41 20.41L18 18L13.41 13.41L3.58999 3.58999L2.80999 2.80999C2.41999 2.41999 1.78999 2.41999 1.39999 2.80999C0.999986 3.19999 0.999986 3.82999 1.38999 4.21999L2.99999 5.82999V19C2.99999 20.1 3.89999 21 4.99999 21H18.17L19.78 22.61C20.17 23 20.8 23 21.19 22.61C21.58 22.22 21.58 21.58 21.19 21.19ZM6.01999 18C5.59999 18 5.36999 17.52 5.62999 17.19L8.11999 13.99C8.31999 13.74 8.69999 13.73 8.89999 13.98L11 16.51L12.17 15L15.17 18H6.01999ZM21 18.17L5.82999 2.99999H19C20.1 2.99999 21 3.89999 21 4.99999V18.17Z" fill="#323232"/>
</svg>
