<svg width="24" height="24" viewBox="0 0 24 24" fill="none" xmlns="http://www.w3.org/2000/svg">
<path d="M20.12 12.04C20.62 11.99 21 11.56 21 11.05C21 10.46 20.49 9.98999 19.9 10.05C18.4 10.2 17 10.66 15.74 11.35L17.22 12.83C18.12 12.42 19.09 12.14 20.12 12.04ZM21 15.09C21 14.48 20.46 14 19.86 14.09C19.48 14.15 19.11 14.25 18.75 14.37L20.37 15.99C20.74 15.84 21 15.5 21 15.09ZM13.97 4.13999C14.03 3.54999 13.57 3.02999 12.97 3.02999C12.47 3.02999 12.03 3.39999 11.98 3.89999C11.88 4.92999 11.6 5.90999 11.19 6.80999L12.67 8.28999C13.36 7.02999 13.82 5.62999 13.97 4.13999ZM9.93 4.15999C10.03 3.55999 9.54 3.01999 8.93 3.01999C8.52 3.01999 8.18 3.27999 8.03 3.63999L9.65 5.25999C9.78 4.90999 9.87 4.53999 9.93 4.15999ZM20.44 18.88L5.12 3.55999C4.73 3.16999 4.1 3.16999 3.71 3.55999C3.32 3.94999 3.32 4.57999 3.71 4.96999L5.86 7.11999C5.27 7.52999 4.6 7.81999 3.87 7.93999C3.39 8.03999 3.03 8.43999 3.03 8.93999C3.03 9.54999 3.57 10.03 4.17 9.93999C5.34 9.74999 6.4 9.25999 7.3 8.56999L8.73 9.99999C7.39 11.1 5.73 11.82 3.92 11.99C3.42 12.04 3.04 12.47 3.04 12.98C3.04 13.57 3.55 14.04 4.14 13.98C6.42 13.75 8.5 12.83 10.15 11.42L12.63 13.9C11.23 15.55 10.3 17.62 10.07 19.9C10.01 20.49 10.47 21.01 11.07 21.01C11.57 21.01 12.01 20.64 12.06 20.14C12.24 18.32 12.96 16.66 14.05 15.32L15.48 16.75C14.79 17.65 14.3 18.71 14.11 19.88C14.01 20.48 14.5 21.02 15.11 21.02C15.6 21.02 16.01 20.66 16.09 20.17C16.21 19.44 16.51 18.77 16.91 18.18L19.04 20.31C19.43 20.7 20.06 20.7 20.45 20.31C20.83 19.9 20.83 19.27 20.44 18.88Z" fill="#323232"/>
</svg>
