<svg width="24" height="24" viewBox="0 0 24 24" fill="none" xmlns="http://www.w3.org/2000/svg">
<path d="M12 17C13.6569 17 15 15.6569 15 14C15 12.3431 13.6569 11 12 11C10.3431 11 9 12.3431 9 14C9 15.6569 10.3431 17 12 17Z" fill="#323232"/>
<path d="M16.6 3.36999C18.7 3.63999 20.37 5.29999 20.63 7.39999C20.67 7.73999 20.95 7.99999 21.29 7.99999C21.68 7.99999 22 7.65999 21.95 7.26999C21.62 4.54999 19.45 2.37999 16.73 2.04999C16.34 1.99999 16 2.31999 16 2.70999C16 3.04999 16.26 3.32999 16.6 3.36999ZM19.23 7.18999C18.93 5.99999 18 5.06999 16.81 4.76999C16.4 4.66999 16 4.98999 16 5.41999C16 5.70999 16.19 5.98999 16.48 6.05999C17.2 6.23999 17.77 6.79999 17.94 7.51999C18.01 7.80999 18.28 7.99999 18.58 7.99999C19.01 7.99999 19.33 7.59999 19.23 7.18999ZM17 8.99999C17 7.89999 16.1 6.99999 15 6.99999V4.99999C15 4.44999 14.55 3.99999 14 3.99999H9.88C9.32 3.99999 8.78 4.23999 8.4 4.64999L7.17 5.99999H4C2.9 5.99999 2 6.89999 2 7.99999V20C2 21.1 2.9 22 4 22H20C21.1 22 22 21.1 22 20V11C22 9.89999 21.1 8.99999 20 8.99999H17ZM12 19C9.24 19 7 16.76 7 14C7 11.24 9.24 8.99999 12 8.99999C14.76 8.99999 17 11.24 17 14C17 16.76 14.76 19 12 19Z" fill="#323232"/>
</svg>
