<svg width="24" height="24" viewBox="0 0 24 24" fill="none" xmlns="http://www.w3.org/2000/svg">
<path d="M21.96 11.05C22.54 17.31 17.32 22.53 11.06 21.95C6.63 21.54 2.94 18.1 2.16 13.72C1.9 12.3 1.97 10.94 2.28 9.68C2.42 9.1 3.04 8.78 3.59 8.98C4.06 9.15 4.34 9.65 4.22 10.14C4.02 10.96 3.95 11.84 4.03 12.75C4.4 16.79 7.92 20 11.98 20.01C16.77 20.02 20.59 15.8 19.92 10.89C19.41 7.19 16.26 4.27 12.53 4.03C11.7 3.97 10.9 4.05 10.15 4.23C9.66 4.34 9.16 4.07 8.99 3.59C8.79 3.03 9.11 2.42 9.68 2.28C11.47 1.85 13.43 1.87 15.46 2.65C19.02 4 21.61 7.27 21.96 11.05ZM5.5 4C4.67 4 4 4.67 4 5.5C4 6.33 4.67 7 5.5 7C6.33 7 7 6.33 7 5.5C7 4.67 6.33 4 5.5 4ZM11 15V9C11 8.45 10.55 8 10 8C9.45 8 9 8.45 9 9V15C9 15.55 9.45 16 10 16C10.55 16 11 15.55 11 15ZM15 15V9C15 8.45 14.55 8 14 8C13.45 8 13 8.45 13 9V15C13 15.55 13.45 16 14 16C14.55 16 15 15.55 15 15Z" fill="#323232"/>
</svg>
