<svg width="24" height="24" viewBox="0 0 24 24" fill="none" xmlns="http://www.w3.org/2000/svg">
<path d="M10 3H14C14.55 3 15 2.55 15 2C15 1.45 14.55 1 14 1H10C9.45001 1 9.00001 1.45 9.00001 2C9.00001 2.55 9.45001 3 10 3ZM19.03 7.39L19.78 6.64C20.16 6.26 20.17 5.63 19.78 5.24L19.77 5.23C19.38 4.84 18.76 4.85 18.37 5.23L17.62 5.98C16.07 4.74 14.12 4 12 4C7.20001 4 3.12001 7.96 3.00001 12.76C2.87001 17.84 6.94001 22 12 22C16.98 22 21 17.97 21 13C21 10.88 20.26 8.93 19.03 7.39ZM12 20C8.13001 20 5.00001 16.87 5.00001 13C5.00001 9.13 8.13001 6 12 6C15.87 6 19 9.13 19 13C19 16.87 15.87 20 12 20ZM10.81 15H7.11001C6.73001 15 6.49001 15.4 6.66001 15.74C7.22001 16.86 8.10001 17.75 9.23001 18.31C9.46001 18.42 9.75001 18.33 9.88001 18.1L11.25 15.75C11.44 15.42 11.2 15 10.81 15ZM14.73 7.65C14.5 7.53 14.21 7.63 14.08 7.85L12.7 10.24C12.5 10.58 12.74 11 13.13 11H16.89C17.27 11 17.51 10.6 17.34 10.27C16.76 9.14 15.85 8.23 14.73 7.65ZM13.88 14.7C13.69 14.36 13.2 14.35 13.01 14.69L10.97 18.21C10.79 18.53 10.99 18.93 11.36 18.96C12.7 19.1 14.05 18.78 15.19 18.07C15.41 17.93 15.47 17.64 15.35 17.41L13.88 14.7ZM10.31 13.23L7.93001 9.57C7.73001 9.27 7.29001 9.27 7.09001 9.57C6.28001 10.73 5.92001 12.14 6.04001 13.55C6.06001 13.81 6.28001 14 6.54001 14H9.89001C10.28 14 10.52 13.56 10.31 13.23ZM13.97 12.74L15.99 16.48C16.17 16.81 16.63 16.83 16.85 16.53C17.71 15.35 18.09 13.91 17.97 12.45C17.95 12.19 17.72 12 17.47 12H14.42C14.03 12 13.79 12.4 13.97 12.74ZM10.17 11.17C10.37 11.48 10.83 11.47 11.02 11.15L12.96 7.8C13.15 7.48 12.93 7.08 12.56 7.04C11.2 6.92 9.83001 7.25 8.68001 8.01C8.46001 8.16 8.41001 8.47 8.55001 8.69L10.17 11.17Z" fill="#323232"/>
</svg>
