<svg width="24" height="24" viewBox="0 0 24 24" fill="none" xmlns="http://www.w3.org/2000/svg">
<path d="M21 16H9C8.45 16 8 15.55 8 15V4H8.79C9.24 4 9.46 3.46 9.14 3.15L7.35 1.35C7.15 1.15 6.84 1.15 6.64 1.35L4.85 3.15C4.54 3.46 4.76 4 5.21 4H6V6H3C2.45 6 2 6.45 2 7C2 7.55 2.45 8 3 8H6V16C6 17.1 6.9 18 8 18H16V20H15.21C14.76 20 14.54 20.54 14.86 20.85L16.65 22.64C16.85 22.84 17.16 22.84 17.36 22.64L19.15 20.85C19.47 20.54 19.24 20 18.8 20H18V18H21C21.55 18 22 17.55 22 17C22 16.45 21.55 16 21 16ZM16 14H18V8C18 6.9 17.1 6 16 6H10V8H15C15.55 8 16 8.45 16 9V14Z" fill="#323232"/>
</svg>
