<svg width="24" height="24" viewBox="0 0 24 24" fill="none" xmlns="http://www.w3.org/2000/svg">
<g clip-path="url(#clip0_107_5)">
<path d="M8.40989 14.96C8.21989 14.96 8.03989 14.93 7.88989 14.88C7.72989 14.82 7.59989 14.75 7.48989 14.64C7.37989 14.54 7.28989 14.42 7.22989 14.27C7.16989 14.13 7.13989 13.97 7.13989 13.8H5.83989C5.83989 14.16 5.90989 14.48 6.04989 14.75C6.18989 15.02 6.37989 15.25 6.60989 15.44C6.84989 15.62 7.11989 15.76 7.42989 15.85C7.72989 15.95 8.04989 16 8.38989 16C8.75989 16 9.10989 15.95 9.41989 15.85C9.73989 15.75 10.0199 15.6 10.2499 15.41C10.4799 15.22 10.6699 14.98 10.7999 14.69C10.9299 14.4 10.9999 14.08 10.9999 13.72C10.9999 13.53 10.9799 13.34 10.9299 13.16C10.8799 12.98 10.8099 12.81 10.6999 12.65C10.5999 12.49 10.4599 12.35 10.2999 12.22C10.1299 12.09 9.92989 11.99 9.68989 11.91C9.88989 11.82 10.0599 11.71 10.2099 11.58C10.3599 11.45 10.4799 11.31 10.5799 11.16C10.6799 11.01 10.7499 10.86 10.7999 10.7C10.8499 10.54 10.8699 10.38 10.8699 10.22C10.8699 9.86002 10.8099 9.54002 10.6899 9.26002C10.5699 8.98002 10.3999 8.75002 10.1799 8.57002C9.97989 8.38002 9.70989 8.24002 9.40989 8.14002C9.09989 8.05002 8.75989 8.00002 8.38989 8.00002C8.02989 8.00002 7.69989 8.05002 7.38989 8.16002C7.08989 8.27002 6.81989 8.42002 6.59989 8.61002C6.38989 8.80002 6.21989 9.02002 6.08989 9.28002C5.96989 9.54002 5.90989 9.82002 5.90989 10.13H7.20989C7.20989 9.96002 7.23989 9.81002 7.29989 9.68002C7.35989 9.55002 7.43989 9.43002 7.54989 9.34002C7.65989 9.25002 7.77989 9.17002 7.92989 9.12002C8.07989 9.07002 8.22989 9.04002 8.40989 9.04002C8.80989 9.04002 9.10989 9.14002 9.29989 9.35002C9.48989 9.55002 9.58989 9.84002 9.58989 10.21C9.58989 10.39 9.55989 10.55 9.50989 10.7C9.45989 10.85 9.36989 10.97 9.25989 11.07C9.14989 11.17 9.00989 11.25 8.84989 11.31C8.68989 11.37 8.48989 11.4 8.26989 11.4H7.49989V12.43H8.26989C8.48989 12.43 8.68989 12.45 8.86989 12.5C9.04989 12.55 9.19989 12.63 9.31989 12.73C9.43989 12.84 9.53989 12.97 9.60989 13.13C9.67989 13.29 9.70989 13.48 9.70989 13.7C9.70989 14.11 9.58989 14.42 9.35989 14.63C9.12989 14.86 8.80989 14.96 8.40989 14.96V14.96ZM17.7099 10.24C17.5299 9.77002 17.2799 9.37002 16.9599 9.04002C16.6399 8.71002 16.2599 8.45002 15.8199 8.27002C15.3899 8.09002 14.8999 8.00002 14.3599 8.00002H11.9999V16H14.2999C14.8499 16 15.3599 15.91 15.8099 15.73C16.2599 15.55 16.6499 15.3 16.9699 14.97C17.2899 14.64 17.5399 14.24 17.7099 13.78C17.8799 13.31 17.9699 12.79 17.9699 12.21V11.81C17.9699 11.23 17.8799 10.71 17.7099 10.24V10.24ZM16.5799 12.2C16.5799 12.62 16.5299 12.99 16.4399 13.33C16.3399 13.66 16.1999 13.95 16.0099 14.18C15.8199 14.41 15.5799 14.59 15.2999 14.71C15.0099 14.83 14.6799 14.89 14.3099 14.89H13.3999V9.11002H14.3699C15.0899 9.11002 15.6399 9.34002 16.0099 9.80002C16.3899 10.26 16.5799 10.92 16.5799 11.79V12.2V12.2ZM15.1499 3.84002L16.4799 2.51002C19.5699 3.97002 21.8199 6.88002 22.3699 10.37C22.4299 10.78 22.8099 11.06 23.2299 10.99C23.6399 10.93 23.9199 10.54 23.8499 10.13C23.2499 6.32002 20.8899 3.12002 17.6099 1.38002C15.9399 0.490021 13.7799 -0.129979 11.3399 0.0200207L15.1499 3.84002V3.84002ZM8.84989 20.15L7.51989 21.48C4.42989 20.02 2.17989 17.11 1.62989 13.62C1.56989 13.21 1.18989 12.93 0.769891 13C0.359891 13.06 0.0798912 13.45 0.149891 13.86C0.749891 17.67 3.10989 20.87 6.38989 22.61C8.05989 23.5 10.2199 24.12 12.6599 23.97L8.84989 20.15V20.15Z" fill="#323232"/>
</g>
<defs>
<clipPath id="clip0_107_5">
<rect width="24" height="24" fill="white"/>
</clipPath>
</defs>
</svg>
