<svg width="24" height="24" viewBox="0 0 24 24" fill="none" xmlns="http://www.w3.org/2000/svg">
<path d="M12 6C13.1046 6 14 5.10457 14 4C14 2.89543 13.1046 2 12 2C10.8954 2 10 2.89543 10 4C10 5.10457 10.8954 6 12 6Z" fill="#323232"/>
<path d="M19 11.9C19 11.41 18.64 11.01 18.16 10.93C16.91 10.72 15.73 10.05 14.93 9.16998L13.64 7.73998C13.47 7.54998 13.26 7.39998 13.03 7.28998C13.02 7.28998 13.02 7.27998 13.01 7.27998H13C12.63 7.06998 12.22 6.96998 11.75 7.02998C10.73 7.14998 10 8.06998 10 9.09998V15C10 16.1 10.9 17 12 17H17V21C17 21.55 17.45 22 18 22C18.55 22 19 21.55 19 21V16.5C19 15.4 18.1 14.5 17 14.5H14V11.05C15 11.88 16.4 12.59 17.8 12.87C18.42 13 19 12.53 19 11.9ZM12.83 18C12.42 19.16 11.31 20 10 20C8.34 20 7 18.66 7 17C7 15.69 7.84 14.59 9 14.17V12.1C6.72 12.56 5 14.58 5 17C5 19.76 7.24 22 10 22C12.42 22 14.44 20.28 14.9 18H12.83Z" fill="#323232"/>
</svg>
