<svg width="24" height="24" viewBox="0 0 24 24" fill="none" xmlns="http://www.w3.org/2000/svg">
<path d="M21.2899 5.89001L11.2899 15.89C10.8999 16.28 10.2699 16.28 9.87988 15.89L7.04988 13.06C6.65988 12.67 6.65988 12.04 7.04988 11.65C7.43988 11.26 8.06988 11.26 8.45988 11.65L10.5799 13.77L19.8699 4.48001C20.2599 4.09001 20.8899 4.09001 21.2799 4.48001C21.6799 4.87001 21.6799 5.50001 21.2899 5.89001ZM11.9999 20C7.28988 20 3.51988 15.91 4.04988 11.1C4.43988 7.58001 7.16988 4.69001 10.6599 4.11001C12.4699 3.81001 14.1899 4.13001 15.6499 4.89001C16.0399 5.09001 16.5099 5.02001 16.8199 4.71001C17.2999 4.23001 17.1799 3.42001 16.5799 3.11001C15.1099 2.36001 13.4499 1.95001 11.6799 2.00001C6.53988 2.16001 2.26988 6.34001 2.00988 11.47C1.71988 17.24 6.29988 22 11.9999 22C13.1999 22 14.3399 21.79 15.4099 21.4C16.0899 21.15 16.2799 20.27 15.7599 19.75C15.4899 19.48 15.0799 19.38 14.7199 19.52C13.8699 19.83 12.9499 20 11.9999 20ZM18.9999 15H16.9999C16.4499 15 15.9999 15.45 15.9999 16C15.9999 16.55 16.4499 17 16.9999 17H18.9999V19C18.9999 19.55 19.4499 20 19.9999 20C20.5499 20 20.9999 19.55 20.9999 19V17H22.9999C23.5499 17 23.9999 16.55 23.9999 16C23.9999 15.45 23.5499 15 22.9999 15H20.9999V13C20.9999 12.45 20.5499 12 19.9999 12C19.4499 12 18.9999 12.45 18.9999 13V15Z" fill="#323232"/>
</svg>
