<svg width="24" height="24" viewBox="0 0 24 24" fill="none" xmlns="http://www.w3.org/2000/svg">
<path d="M10.0401 6.28998C10.6601 6.10998 11.3201 5.99998 12.0001 5.99998C15.8601 5.99998 19.0001 9.13998 19.0001 13C19.0001 13.68 18.8901 14.34 18.7101 14.96L20.2701 16.52C20.7401 15.44 21.0001 14.25 21.0001 13C21.0001 8.02998 16.9701 3.99998 12.0001 3.99998C10.7501 3.99998 9.56007 4.25998 8.47007 4.71998L10.0401 6.28998ZM3.71007 2.78998C3.33007 2.40998 2.71007 2.40998 2.32007 2.78998L2.30007 2.81998C1.91007 3.20998 1.91007 3.82998 2.30007 4.20998L2.98007 4.88998L2.81007 5.02998C2.39007 5.36998 2.34007 5.98998 2.68007 6.40998L2.71007 6.43998C3.06007 6.85998 3.67007 6.90998 4.09007 6.55998L4.40007 6.30998L5.20007 7.10998C3.83007 8.68998 3.00007 10.75 3.00007 13C3.00007 17.97 7.03007 22 12.0001 22C14.2501 22 16.3101 21.17 17.8901 19.8L19.3001 21.21C19.6801 21.59 20.3001 21.59 20.6901 21.21L20.7201 21.18C21.1001 20.8 21.1001 20.18 20.7201 19.79L3.71007 2.78998ZM12.0001 20C8.14007 20 5.00007 16.86 5.00007 13C5.00007 11.3 5.61007 9.73998 6.62007 8.52998L16.4701 18.38C15.2601 19.39 13.7001 20 12.0001 20ZM19.9101 6.55998C20.3301 6.90998 20.9401 6.84998 21.2901 6.43998L21.3201 6.40998C21.6701 5.98998 21.6101 5.37998 21.2001 5.02998L18.1001 2.43998C17.6801 2.08998 17.0701 2.14998 16.7201 2.55998L16.6901 2.58998C16.3401 3.00998 16.4001 3.61998 16.8101 3.96998L19.9101 6.55998ZM7.43007 3.67998C7.61007 3.33998 7.58007 2.90998 7.32007 2.58998L7.29007 2.55998C6.99007 2.19998 6.49007 2.12998 6.09007 2.33998L7.43007 3.67998Z" fill="#323232"/>
</svg>
