<svg width="24" height="24" viewBox="0 0 24 24" fill="none" xmlns="http://www.w3.org/2000/svg">
<path d="M14.07 5.32C16.26 6 18 7.74 18.68 9.93C18.87 10.56 19.44 11 20.09 11H20.13C21.13 11 21.85 10.04 21.56 9.09C20.59 5.91 18.08 3.4 14.9 2.43C13.96 2.14 13 2.86 13 3.86V3.9C13 4.56 13.44 5.13 14.07 5.32ZM18.68 14.07C18 16.27 16.26 18 14.07 18.68C13.44 18.87 13 19.44 13 20.09V20.13C13 21.13 13.96 21.85 14.91 21.56C18.09 20.59 20.6 18.08 21.57 14.9C21.86 13.95 21.14 12.99 20.15 12.99H20.1C19.44 13 18.87 13.44 18.68 14.07ZM11 20.11C11 19.44 10.55 18.87 9.91 18.67C7.07 17.78 5 15.13 5 12C5 8.87 7.07 6.22 9.91 5.33C10.55 5.13 11 4.56 11 3.89V3.88C11 2.88 10.03 2.14 9.07 2.44C4.98 3.69 2 7.5 2 12C2 16.5 4.98 20.31 9.07 21.56C10.03 21.86 11 21.12 11 20.11Z" fill="#323232"/>
</svg>
