<svg width="24" height="24" viewBox="0 0 24 24" fill="none" xmlns="http://www.w3.org/2000/svg">
<path d="M2.80989 2.81C2.41989 2.42 1.78989 2.42 1.39989 2.81C0.999895 3.2 0.999895 3.83 1.38989 4.22L9.5799 12.41L6.57989 15.42C6.20989 15.8 5.99989 16.31 5.99989 16.84V20C5.99989 21.1 6.89989 22 7.99989 22H15.9999C16.8599 22 17.5799 21.46 17.8699 20.7L19.7799 22.61C20.1699 23 20.7999 23 21.1899 22.61C21.5799 22.22 21.5799 21.59 21.1899 21.2L2.80989 2.81ZM15.9999 19C15.9999 19.55 15.5499 20 14.9999 20H8.99989C8.44989 20 7.99989 19.55 7.99989 19V16.5L10.8399 13.66L15.9999 18.83V19Z" fill="#323232"/>
<path d="M7.99988 5C7.99988 4.45 8.44988 4 8.99988 4H14.9999C15.5499 4 15.9999 4.45 15.9999 5V7.5L13.1599 10.34L14.4099 11.59L17.4099 8.6C17.7899 8.22 17.9999 7.71 17.9999 7.18V4C17.9999 2.89 17.0999 2 15.9999 2H7.99988C7.13988 2 6.41988 2.54 6.12988 3.3L7.99988 5.17V5Z" fill="#323232"/>
</svg>
