<svg width="24" height="24" viewBox="0 0 24 24" fill="none" xmlns="http://www.w3.org/2000/svg">
<path d="M17.9999 13H12.9399C12.5999 16.1 10.6799 18.72 7.99991 20.05C7.96991 21.86 6.33991 23.28 4.44991 22.95C3.24991 22.74 2.25991 21.75 2.04991 20.55C1.70991 18.65 3.15991 17 4.99991 17C5.94991 17 6.77991 17.45 7.32991 18.14C9.22991 17.11 10.5899 15.23 10.9099 13H7.80991C7.32991 14.34 5.94991 15.24 4.38991 14.94C3.20991 14.71 2.25991 13.74 2.03991 12.56C1.69991 10.66 3.15991 9 4.99991 9C6.29991 9 7.39991 9.84 7.81991 11H10.9199C10.5999 8.77 9.22991 6.9 7.32991 5.86C6.68991 6.66 5.65991 7.14 4.51991 6.96C3.28991 6.77 2.25991 5.77 2.04991 4.54C1.71991 2.65 3.16991 1 4.99991 1C6.63991 1 7.95991 2.31 7.98991 3.95C10.6699 5.28 12.5899 7.9 12.9299 11H17.9999V9.21C17.9999 8.76 18.5399 8.54 18.8499 8.86L21.6399 11.65C21.8399 11.85 21.8399 12.16 21.6399 12.36L18.8499 15.15C18.5399 15.46 17.9999 15.24 17.9999 14.79V13Z" fill="#323232"/>
</svg>
