<svg width="24" height="24" viewBox="0 0 24 24" fill="none" xmlns="http://www.w3.org/2000/svg">
<path d="M15.5 11.5C15.5 13.5 13 15 13 16.5H11C11 15 8.5 13.5 8.5 11.5C8.5 9.57 10.07 8 12 8C13.93 8 15.5 9.57 15.5 11.5ZM13 17.5H11V18C11 18.55 11.45 19 12 19C12.55 19 13 18.55 13 18V17.5ZM22 12C22 9.54 21.11 7.29 19.64 5.55C19.35 5.21 18.84 5.17 18.52 5.49C18.25 5.76 18.22 6.2 18.46 6.49C19.73 7.97 20.5 9.9 20.5 12C20.5 14.1 19.73 16.03 18.46 17.52C18.21 17.81 18.25 18.25 18.52 18.52C18.84 18.84 19.35 18.8 19.64 18.46C21.11 16.71 22 14.46 22 12ZM3.5 12C3.5 9.9 4.27 7.97 5.54 6.48C5.79 6.19 5.75 5.75 5.48 5.48C5.17 5.17 4.65 5.2 4.36 5.54C2.89 7.29 2 9.54 2 12C2 14.46 2.89 16.71 4.36 18.46C4.65 18.8 5.16 18.84 5.48 18.52C5.75 18.25 5.78 17.81 5.54 17.52C4.27 16.03 3.5 14.1 3.5 12ZM17.5 12C17.5 13.28 17.06 14.47 16.32 15.41C16.09 15.7 16.12 16.12 16.39 16.39C16.71 16.71 17.24 16.68 17.52 16.32C18.44 15.13 19 13.63 19 12C19 10.37 18.44 8.87 17.51 7.69C17.23 7.33 16.7 7.3 16.38 7.62C16.12 7.88 16.08 8.3 16.31 8.6C17.06 9.53 17.5 10.72 17.5 12ZM7.62 16.38C7.88 16.12 7.92 15.7 7.69 15.4C6.94 14.47 6.5 13.28 6.5 12C6.5 10.72 6.94 9.53 7.68 8.59C7.91 8.3 7.88 7.88 7.61 7.61C7.3 7.3 6.77 7.33 6.49 7.68C5.56 8.87 5 10.37 5 12C5 13.63 5.56 15.13 6.49 16.32C6.77 16.67 7.3 16.7 7.62 16.38Z" fill="#323232"/>
</svg>
