<svg width="24" height="24" viewBox="0 0 24 24" fill="none" xmlns="http://www.w3.org/2000/svg">
<path d="M13.25 2.99999C8.16002 2.85999 3.99002 6.93999 3.99002 12H2.20002C1.75002 12 1.53002 12.54 1.85002 12.85L4.64002 15.65C4.84002 15.85 5.15002 15.85 5.35002 15.65L8.14002 12.85C8.46002 12.54 8.23002 12 7.79002 12H5.99002C5.99002 8.09999 9.17002 4.94999 13.09 4.99999C16.81 5.04999 19.94 8.17999 19.99 11.9C20.04 15.81 16.89 19 12.99 19C11.38 19 9.89002 18.45 8.71002 17.52C8.31002 17.21 7.75002 17.24 7.39002 17.6C6.97002 18.03 7.00002 18.73 7.47002 19.1C8.99002 20.29 10.91 21 12.99 21C18.04 21 22.13 16.83 21.99 11.74C21.86 7.04999 17.94 3.12999 13.25 2.99999ZM12.74 7.99999C12.33 7.99999 11.99 8.33999 11.99 8.74999V12.43C11.99 12.78 12.18 13.11 12.48 13.29L15.6 15.14C15.96 15.35 16.42 15.23 16.63 14.88C16.84 14.52 16.72 14.06 16.37 13.85L13.49 12.14V8.73999C13.49 8.33999 13.16 7.99999 12.74 7.99999Z" fill="#323232"/>
</svg>
