<svg width="24" height="24" viewBox="0 0 24 24" fill="none" xmlns="http://www.w3.org/2000/svg">
<path d="M15.83 10.29L13.71 8.16999C13.32 7.77999 13.32 7.14999 13.71 6.75999C14.1 6.36999 14.73 6.36999 15.12 6.75999L16.53 8.16999L20.07 4.62999C20.46 4.23999 21.09 4.23999 21.48 4.62999C21.87 5.01999 21.87 5.64999 21.48 6.03999L17.24 10.28C16.85 10.68 16.22 10.68 15.83 10.29ZM10 6.99999H3C2.45 6.99999 2 7.44999 2 7.99999C2 8.54999 2.45 8.99999 3 8.99999H10C10.55 8.99999 11 8.54999 11 7.99999C11 7.44999 10.55 6.99999 10 6.99999ZM20.29 12.71C19.9 12.32 19.27 12.32 18.88 12.71L17 14.59L15.12 12.71C14.73 12.32 14.1 12.32 13.71 12.71C13.32 13.1 13.32 13.73 13.71 14.12L15.59 16L13.71 17.88C13.32 18.27 13.32 18.9 13.71 19.29C14.1 19.68 14.73 19.68 15.12 19.29L17 17.41L18.88 19.29C19.27 19.68 19.9 19.68 20.29 19.29C20.68 18.9 20.68 18.27 20.29 17.88L18.41 16L20.29 14.12C20.68 13.73 20.68 13.1 20.29 12.71ZM10 15H3C2.45 15 2 15.45 2 16C2 16.55 2.45 17 3 17H10C10.55 17 11 16.55 11 16C11 15.45 10.55 15 10 15Z" fill="#323232"/>
</svg>
