<svg width="24" height="24" viewBox="0 0 24 24" fill="none" xmlns="http://www.w3.org/2000/svg">
<path d="M11 22H13V24H11V22ZM7 22H9V24H7V22ZM15 22H17V24H15V22ZM13.41 10L17.03 6.38C17.22 6.19 17.32 5.94 17.32 5.67C17.32 5.4 17.21 5.15 17.03 4.96L12.7 0.650005C12.41 0.360005 11.98 0.280005 11.61 0.430005C11.24 0.580005 11 0.950005 11 1.35V7.58L7.14 3.73C6.75 3.34 6.12 3.34 5.73 3.73C5.34 4.12 5.34 4.75 5.73 5.14L10.58 10L5.73 14.85C5.34 15.24 5.34 15.87 5.73 16.26C6.12 16.65 6.75 16.65 7.14 16.26L11 12.41V18.64C11 19.04 11.24 19.41 11.62 19.56C11.74 19.61 11.87 19.64 12 19.64C12.26 19.64 12.52 19.54 12.71 19.35L17.03 15.03C17.22 14.84 17.32 14.59 17.32 14.32C17.32 14.05 17.21 13.8 17.03 13.61L13.41 10ZM13 3.77L14.91 5.68L13 7.58V3.77ZM13 16.23V12.41L14.91 14.32L13 16.23Z" fill="#323232"/>
</svg>
