<svg width="24" height="24" viewBox="0 0 24 24" fill="none" xmlns="http://www.w3.org/2000/svg">
<path d="M6.99993 6.12C6.56993 5.77 5.93993 5.82 5.58993 6.25L1.34993 11.36C1.03993 11.73 1.03993 12.27 1.34993 12.64L5.58993 17.75C5.93993 18.18 6.56993 18.23 6.99993 17.88C7.42993 17.53 7.47993 16.9 7.12993 16.47L3.41993 12L7.12993 7.53C7.47993 7.1 7.42993 6.47 6.99993 6.12ZM6.99993 13H8.99993V11H6.99993V13ZM16.9999 11H14.9999V13H16.9999V11ZM10.9999 13H12.9999V11H10.9999V13ZM16.9999 6.12C16.5699 6.47 16.5199 7.1 16.8699 7.53L20.5799 12L16.8699 16.47C16.5199 16.9 16.5799 17.53 16.9999 17.88C17.4299 18.23 18.0599 18.18 18.4099 17.75L22.6499 12.64C22.9599 12.27 22.9599 11.73 22.6499 11.36L18.4099 6.25C18.0599 5.83 17.4199 5.77 16.9999 6.12Z" fill="#323232"/>
</svg>
