<svg width="24" height="24" viewBox="0 0 24 24" fill="none" xmlns="http://www.w3.org/2000/svg">
<path d="M20.0001 4H6.83008L14.8301 12H19.0001C19.5501 12 20.0001 12.45 20.0001 13C20.0001 13.55 19.5501 14 19.0001 14H16.8301L21.7601 18.93C21.9101 18.65 22.0001 18.34 22.0001 18V6C22.0001 4.9 21.1001 4 20.0001 4Z" fill="#323232"/>
<path d="M20 20L14 14L12.29 12.29L12 12L3.16002 3.15999C2.77002 2.76999 2.14002 2.76999 1.75002 3.15999C1.36002 3.54999 1.36002 4.17999 1.75002 4.56999L2.24002 5.05999C2.09002 5.34999 2.00002 5.65999 2.00002 5.99999V18C2.00002 19.1 2.90002 20 4.00002 20H17.17L19.42 22.25C19.81 22.64 20.44 22.64 20.83 22.25C21.22 21.86 21.22 21.23 20.83 20.84L20 20ZM8.00002 13C8.00002 13.55 7.55002 14 7.00002 14H5.00002C4.45002 14 4.00002 13.55 4.00002 13C4.00002 12.45 4.45002 12 5.00002 12H7.00002C7.55002 12 8.00002 12.45 8.00002 13ZM14 17C14 17.55 13.55 18 13 18H5.00002C4.45002 18 4.00002 17.55 4.00002 17C4.00002 16.45 4.45002 16 5.00002 16H13C13.08 16 13.14 16.03 13.21 16.04L13.95 16.78C13.97 16.86 14 16.92 14 17Z" fill="#323232"/>
</svg>
