<svg width="24" height="24" viewBox="0 0 24 24" fill="none" xmlns="http://www.w3.org/2000/svg">
<path d="M17.6099 9.84998L18.1699 10.41L9.68991 18.9C9.29991 19.29 9.29991 19.92 9.68991 20.31C10.0799 20.7 10.7099 20.7 11.0999 20.31L19.5899 11.82L20.1499 12.38C20.4599 12.7 20.9999 12.48 20.9999 12.04V9.49998C20.9999 9.21998 20.7799 8.99998 20.4999 8.99998H17.9599C17.5199 8.99998 17.2999 9.53998 17.6099 9.84998ZM8.47991 12.75L12.0199 9.20998L13.6199 9.87998C13.9799 10.03 14.3899 9.94998 14.6699 9.66998C15.1599 9.17998 14.9899 8.35998 14.3499 8.09998L5.25991 4.49998C4.82991 4.33998 4.34991 4.43998 4.02991 4.75998C3.70991 5.07998 3.60991 5.55998 3.77991 5.98998L7.38991 15.08C7.63991 15.72 8.46991 15.89 8.95991 15.4C9.23991 15.12 9.31991 14.71 9.16991 14.35L8.47991 12.75ZM7.65991 11.03L5.42991 6.15998L10.2999 8.38998L7.65991 11.03Z" fill="#323232"/>
</svg>
