<svg width="24" height="24" viewBox="0 0 24 24" fill="none" xmlns="http://www.w3.org/2000/svg">
<path d="M18.3199 5.67999C17.9599 6.03999 17.9299 6.59999 18.2499 6.99999C19.6999 8.81999 20.4599 11.31 19.7799 13.92C18.9899 16.97 16.5999 19.25 13.5699 19.86C8.4699 20.87 3.9999 16.93 3.9999 12C3.9999 7.91999 7.0499 4.55999 10.9999 4.06999V6.08999C7.8699 6.61999 5.5699 9.54999 6.0699 12.92C6.4599 15.53 8.6299 17.63 11.2499 17.95C14.8899 18.4 17.9999 15.56 17.9999 12C17.9999 10.75 17.6199 9.59999 16.9699 8.63999C16.6299 8.13999 15.8999 8.10999 15.4699 8.52999L15.4599 8.53999C15.1199 8.87999 15.0899 9.40999 15.3499 9.80999C15.9499 10.73 16.1899 11.91 15.8399 13.13C15.4499 14.5 14.2999 15.59 12.8999 15.9C10.2999 16.47 7.9999 14.51 7.9999 12C7.9999 10.14 9.2799 8.58999 10.9999 8.13999V10.28C10.3999 10.63 9.9999 11.26 9.9999 12C9.9999 13.1 10.8999 14 11.9999 14C13.0999 14 13.9999 13.1 13.9999 12C13.9999 11.26 13.5999 10.62 12.9999 10.28V2.70999C12.9999 2.31999 12.6799 1.99999 12.2899 1.99999C6.9299 1.79999 2.3099 6.05999 2.0199 11.4C1.6599 17.95 7.4299 23.22 14.0299 21.8C17.9099 20.97 20.9099 18 21.7799 14.13C22.4899 10.97 21.5799 7.96999 19.8099 5.75999C19.4399 5.28999 18.7399 5.25999 18.3199 5.67999Z" fill="#323232"/>
</svg>
