<svg width="24" height="24" viewBox="0 0 24 24" fill="none" xmlns="http://www.w3.org/2000/svg">
<path d="M20.4901 20.49L3.51012 3.51003C3.12012 3.12003 2.49012 3.12003 2.10012 3.51003C1.71012 3.90003 1.71012 4.53003 2.10012 4.92003L3.66012 6.48003C2.41012 8.36003 1.78012 10.69 2.07012 13.18C2.60012 17.72 6.28012 21.4 10.8101 21.92C13.3001 22.21 15.6201 21.58 17.5101 20.33L19.0701 21.89C19.4601 22.28 20.0901 22.28 20.4801 21.89C20.8801 21.51 20.8801 20.88 20.4901 20.49ZM9.88012 15.89L7.05012 13.06C6.66012 12.67 6.66012 12.04 7.05012 11.65C7.44012 11.26 8.07012 11.26 8.46012 11.65L10.5801 13.77L10.7601 13.59L12.1701 15L11.2901 15.88C10.9001 16.28 10.2701 16.28 9.88012 15.89ZM13.5901 10.76L6.49012 3.66003C8.37012 2.41003 10.7001 1.78003 13.1901 2.07003C17.7301 2.60003 21.4101 6.28003 21.9301 10.81C22.2201 13.3 21.5901 15.63 20.3401 17.51L15.0001 12.17L16.9401 10.23C17.3301 9.84003 17.3301 9.21003 16.9401 8.82003C16.5501 8.43003 15.9201 8.43003 15.5301 8.82003L13.5901 10.76Z" fill="#323232"/>
</svg>
